<svg width="295" height="124" viewBox="0 0 295 124" fill="none" xmlns="http://www.w3.org/2000/svg">
<path d="M82.8748 180.758C81.9979 180.032 80.8946 179.713 79.9132 179.184C77.6079 177.942 75.4535 176.49 73.3456 174.957C73.2759 174.905 73.1598 174.916 73.0668 174.905C73.1075 174.335 72.672 174.097 72.3061 173.807C71.9113 173.493 71.4583 173.232 71.2377 172.733C71.2493 172.425 71.1331 172.187 70.8892 171.984C69.6698 170.967 68.9265 169.487 67.5619 168.592C67.0973 168.285 66.8302 167.768 66.5399 167.251C65.7501 165.834 64.5829 164.684 63.5319 163.453C63.4564 163.36 63.2647 163.366 63.1312 163.325C62.1614 161.967 61.3078 160.544 60.4948 159.075C58.9676 156.305 57.5391 153.5 56.4068 150.55C55.3209 147.728 54.3743 144.859 53.6891 141.91C53.2768 140.127 52.8819 138.338 52.4522 136.567C51.9354 134.395 51.5986 132.224 51.436 130.011C51.3954 129.483 51.4186 128.937 51.2966 128.426C50.7392 126.057 50.6695 123.635 50.5766 121.237C50.3385 115.25 50.6463 109.28 51.3489 103.322C51.738 100.018 52.458 96.7722 52.8007 93.4623C52.8994 92.5099 53.1723 91.5692 53.3988 90.6343C53.9156 88.538 54.415 86.4359 55.0073 84.3628C55.6228 82.1968 56.308 80.0541 57.0049 77.9113C57.7017 75.7627 58.7005 73.7245 59.5193 71.6224C60.5703 68.928 62.1092 66.5239 63.5493 64.0501C63.6945 64.0501 63.9384 64.0966 63.9674 64.0443C64.5713 62.79 65.9011 62.2848 66.7838 61.3267C66.9522 61.1467 67.0799 60.9608 67.167 60.7286C67.5328 59.7356 68.3458 59.0736 69.153 58.5103C69.6524 58.1619 70.1924 57.8774 70.6686 57.4709C71.8242 56.4953 73.1423 55.694 74.4315 54.9739C76.9285 53.5686 79.6461 52.564 82.2534 51.362C82.9967 51.0194 83.7051 50.6535 84.5588 50.7755C84.8956 50.8219 85.1859 50.5955 85.4879 50.5026C86.3415 50.2413 87.0674 49.6664 88.0081 49.6199C89.7037 49.527 91.3703 49.6025 93.1008 49.1728C95.7023 48.5282 98.3967 49.3586 101.045 49.707C101.172 49.7244 101.283 49.8696 101.411 49.9161C102.734 50.4097 104.035 51.0484 105.522 50.7406C105.58 51.9717 106.375 52.7731 107.514 53.1447C108.524 53.4699 109.668 53.5164 110.487 54.3409C112.293 56.1527 114.104 57.9529 115.905 59.7704C116.172 60.0375 116.421 60.2989 116.526 60.7112C116.845 61.9538 117.56 62.912 118.616 63.6843C119.255 64.1489 119.789 64.7528 120.103 65.5774C120.544 66.7446 120.829 68.0569 122.013 68.8176C122.333 69.0209 122.304 69.4158 122.292 69.7526C122.257 70.8791 122.821 71.7501 123.483 72.5747C123.721 72.8709 123.924 73.1496 124.052 73.5445C124.627 75.3156 124.783 77.2667 126.131 78.7301C126.224 78.8288 126.305 78.9798 126.311 79.1133C126.38 80.205 126.584 81.2503 126.839 82.3188C127.089 83.3814 127.524 84.3686 127.791 85.4139C128.151 86.8249 128.842 88.1547 128.703 89.6878C128.651 90.2975 128.604 90.9246 128.837 91.546C129.382 93.0093 129.888 94.4785 129.859 96.0812C129.841 96.8942 129.603 97.7942 130.004 98.5085C130.445 99.2924 130.393 100.076 130.428 100.884C130.445 101.365 130.288 101.969 130.521 102.306C131.2 103.282 130.945 104.344 131.014 105.378C131.037 105.715 130.921 106.15 131.09 106.371C131.769 107.277 131.525 108.305 131.589 109.292C131.612 109.675 131.49 110.111 131.769 110.407C132.228 110.895 132.141 111.481 132.147 112.044C132.164 113.154 132.158 114.269 132.176 115.378C132.176 115.714 132.112 116.144 132.292 116.359C132.855 117.038 132.716 117.817 132.727 118.571C132.751 119.826 132.739 121.086 132.751 122.34C132.751 122.723 132.646 123.159 132.931 123.455C133.436 123.984 133.314 124.622 133.32 125.238C133.337 126.98 133.546 128.751 133.279 130.447C133 132.212 134.272 133.832 133.523 135.568C133.5 135.621 133.587 135.743 133.645 135.812C134.011 136.225 133.883 136.73 133.883 137.2C133.894 139.424 133.918 141.648 133.871 143.866C133.836 145.336 133.082 146.712 133.244 148.216C133.25 148.297 133.18 148.407 133.116 148.466C132.652 148.884 132.733 149.435 132.751 149.958C132.803 151.694 132.141 153.268 131.758 154.905C131.514 155.956 131.107 156.99 131.032 158.064C130.95 159.266 131.032 160.48 131.032 161.682C131.096 162.245 130.619 162.611 130.521 163.14C130.236 164.69 129.452 166.043 128.703 167.408C126.886 168.134 126.769 169.87 126.322 171.409C126.055 171.542 125.887 171.763 125.782 172.036C125.045 172.431 124.313 172.739 123.843 173.581C123.442 174.306 122.751 175.015 122.019 175.392C120.376 176.234 119.36 177.843 117.728 178.691C117.205 178.964 116.793 179.44 116.212 179.724C114.302 180.665 112.426 181.687 110.475 182.552C110.208 182.668 110.15 182.877 110.109 183.121C107.061 184.074 103.948 184.498 100.754 184.399C99.1632 184.347 97.5721 184.3 95.981 184.242C95.6907 184.23 95.3887 184.242 95.1216 184.155C93.5363 183.615 91.8349 183.615 90.2438 183.098C89.2566 182.779 88.252 182.529 87.259 182.221C85.7724 181.763 84.402 180.967 82.8341 180.764L82.8748 180.758Z" fill="#E87625"/>
<path d="M13.3482 94.8912C13.3482 95.019 13.3598 95.1467 13.3656 95.2745C13.0695 95.7216 12.8024 96.2152 12.8198 96.7436C12.9127 99.6935 12.2391 102.585 12.152 105.524C12.0591 108.909 12.7211 112.236 12.8082 115.605C12.8082 115.703 12.8198 115.796 12.8372 115.889C13.4179 118.369 13.2959 120.947 13.8941 123.426C13.9928 123.839 13.8883 124.327 14.4631 124.46C14.4864 124.646 14.5038 124.832 14.527 125.018L14.4225 125.616C14.4864 127.172 14.2251 128.711 14.8928 130.273C15.1832 130.946 15.6826 131.736 15.5548 132.572C15.3574 133.862 16.4259 134.907 16.211 136.184C16.1994 136.266 16.2459 136.399 16.3097 136.446C17.0879 137.044 17.2156 137.944 17.535 138.792C17.7266 139.297 17.895 139.767 17.895 140.29C17.895 141.12 18.2725 141.649 19.068 141.887C19.0796 142.038 19.0971 142.189 19.1087 142.345C18.9229 143.507 19.5616 144.436 19.9971 145.412C20.2933 146.085 20.4617 146.881 21.3444 147.096C21.5824 147.647 22.0818 148.106 21.9831 148.791C21.9599 149.36 21.7973 149.993 22.1225 150.481C23.1561 152.02 23.5568 153.832 24.3814 155.446C25.0318 156.718 25.3918 158.344 27.1455 158.738C27.1745 158.977 27.1339 159.255 27.2442 159.447C28.063 160.87 28.8237 162.333 29.9851 163.535C30.5077 164.069 31.1755 164.505 31.3381 165.335C31.3962 165.631 31.6923 165.596 31.9362 165.55V165.573C31.8704 166.367 32.2382 166.767 33.0395 166.775C32.9931 167.199 33.1905 167.397 33.6144 167.373C33.986 167.861 34.5319 168.366 34.1603 169.017C33.8351 169.58 33.1789 169.725 32.5285 169.731C32.0988 169.731 31.6691 169.76 31.2394 169.772C31.0535 169.754 30.8677 169.731 30.6819 169.714C30.4496 168.964 29.7063 169.249 29.2244 169.005C26.0538 167.402 23.0458 165.55 20.392 163.198C19.2829 162.211 17.9879 161.346 17.3085 159.929C17.3318 159.36 17.0821 158.808 16.7162 158.495C15.3748 157.362 14.6664 155.725 13.4353 154.505C12.634 153.71 11.9139 152.728 11.6003 151.677C11.2461 150.487 10.7873 149.471 9.87566 148.646C9.4111 148.228 8.98139 147.775 8.91171 147.09C8.76073 145.644 7.69225 144.622 7.15801 143.35C7.02445 143.036 6.71088 143.019 6.41473 143.019C6.26955 142.688 6.21729 142.34 6.2289 141.985C6.30439 141.416 6.46118 140.795 6.11276 140.313C5.77015 139.843 5.68305 139.361 5.72951 138.838C5.805 137.984 5.36367 137.741 4.61458 137.793C4.58554 137.624 4.5507 137.462 4.52166 137.293C4.58554 136.951 4.49844 136.701 4.12099 136.631L3.98162 135.505C4.3881 134.524 4.33584 134.367 3.42996 133.757C2.98864 132.572 3.02348 131.266 2.64022 130.099C1.83306 127.602 1.50206 125.023 1.17107 122.463C0.787808 119.455 0.346482 116.429 0.38713 113.38C0.38713 113.044 0.329059 112.707 0.276797 112.376C-0.0948468 109.925 -0.0658137 107.463 0.207112 105.013C0.311637 104.101 0.433583 103.195 0.456811 102.278C0.520687 99.3742 0.91556 96.5055 1.18849 93.6195C1.36269 91.8019 1.74595 90.0017 1.85628 88.1668C1.8679 87.9751 1.90274 87.7835 1.94919 87.5977C2.66925 84.8046 3.17446 81.965 3.81903 79.1602C4.54489 75.978 5.48562 72.8829 6.68184 69.8633C7.96518 66.6172 9.55047 63.5047 11.3506 60.5083C11.5655 60.1483 11.5713 59.6431 12.0533 59.4689C12.9475 59.2482 13.3482 58.6675 13.2669 57.7558C14.2831 57.3145 14.4399 56.2228 15.0148 55.4447H15.0206C16.4317 55.2472 17.2388 54.3762 17.2505 53.0348V53.0232C17.5931 53.0987 17.9473 53.1393 18.2202 52.8838C18.9519 52.187 20.1017 51.9896 20.4791 50.8572C20.5836 50.5436 20.9495 50.2417 21.3792 50.1952C21.7508 50.1546 21.9831 49.8932 22.198 49.6436C22.9006 48.819 23.8181 48.3022 24.7879 47.9131C25.1653 47.7621 25.4324 47.5124 25.7344 47.2917C26.5822 46.6762 27.4358 46.0665 28.5682 46.1246C28.9108 46.142 29.1953 46.0142 29.5089 45.8458C31.3323 44.8644 33.2428 44.2721 35.3681 44.3709C37.4354 44.4696 39.5491 44.1502 41.5699 45.2825C40.9718 45.7355 40.0833 45.8516 39.9382 46.7285C38.8755 47.3034 37.8128 47.8724 36.7502 48.4473C35.9372 48.4125 35.5655 48.9409 35.2868 49.5913C33.7944 50.8862 32.2846 52.1638 30.8155 53.4877C29.6831 54.5098 28.7598 55.7292 27.7494 56.8674C24.6717 60.3399 22.1864 64.1783 20.2178 68.3651C19.4281 70.0375 18.7022 71.7389 17.9473 73.4288C17.7034 73.4578 17.4479 73.4984 17.384 73.7772C17.2969 74.1604 17.1227 74.4682 16.8498 74.7644C15.9497 75.7399 15.4561 76.8665 15.5665 78.2427C15.6245 78.986 15.4794 79.7003 15.2122 80.461C14.6896 81.9475 14.0683 83.4864 14.4864 85.1472C14.4806 85.3039 14.4689 85.4549 14.4631 85.6117C14.3296 85.6524 14.0973 85.6582 14.0683 85.7395C13.7837 86.5699 13.3714 87.3944 13.3018 88.2422C13.1972 89.5198 13.1566 90.8147 13.3192 92.0981C13.4527 93.0272 13.1101 93.9621 13.3482 94.8912Z" fill="#E87625"/>
<path d="M117.735 18.2511C117.782 18.4891 117.747 18.7679 118.043 18.884C117.817 19.1802 117.985 19.2905 118.264 19.3544C119.141 21.561 120.052 23.7502 120.877 25.9743C121.632 28.0125 122.358 30.0682 123.025 32.1413C123.385 33.2736 123.449 34.586 124.657 35.3641C125.18 35.7009 125.766 35.8809 126.301 36.1306C128.316 37.0772 128.972 39.127 127.642 40.9271C127.143 41.6066 126.544 42.2163 125.97 42.8376C124.117 44.8236 122.787 47.187 121.237 49.3878C120.778 50.0382 120.064 50.526 119.925 51.3854C119.535 51.4377 119.03 51.2751 118.949 51.9081C117.677 52.2739 116.568 51.6293 115.407 51.3332C115.366 51.1532 115.378 50.9731 115.163 50.857C114.332 50.4215 113.537 49.9221 112.736 49.4459C110.825 48.3194 108.839 47.4077 106.754 46.6702C105.465 46.2115 104.135 45.8747 102.846 45.4449C101.29 44.9223 99.6757 44.7307 98.0962 44.5449C95.3728 44.2313 92.6087 44.2661 89.862 44.3416C88.7529 44.3707 87.6438 44.4345 86.5346 44.3939C85.3849 44.3532 85.1177 43.6041 85.4952 42.5473C85.7855 41.7401 86.6624 41.6356 86.9411 40.9271C88.7355 40.271 90.1407 38.9876 91.5751 37.8262C94.2521 35.6544 96.5168 33.0936 98.1717 30.0275C99.5596 27.4667 100.582 24.8245 100.32 21.8223C100.204 20.4577 99.7512 19.1744 99.0834 18.0536C98.0962 16.4045 96.9871 14.7959 95.1231 13.9249C94.6411 13.6984 94.2753 13.6346 93.7933 13.8726C92.0512 14.7379 90.0362 13.5126 89.9027 11.5557C89.833 10.5395 90.1988 9.61034 90.6576 8.80318C92.1499 6.17844 93.9036 3.73953 96.2612 1.7826C97.5214 0.737348 99.0021 0.110202 100.547 0.0114841C102.051 -0.0872338 103.537 0.458617 104.85 1.33546C107.126 2.85688 108.92 4.8835 110.628 6.974C112.921 9.77875 114.82 12.8622 116.609 16.0096C116.754 16.8748 117.056 17.6646 117.741 18.2627L117.735 18.2511Z" fill="#38785E"/>
<path d="M75.9233 40.3294C75.2148 39.8649 74.3961 39.83 73.5947 39.7545C73.5424 39.5687 73.525 39.3074 73.316 39.29C72.1372 39.1854 71.0977 38.3783 69.8492 38.6048C69.5705 38.657 69.2453 38.6222 69.0304 38.4015C68.6414 37.995 68.1536 38.0531 67.6774 38.0531C64.6346 38.0531 61.586 38.0531 58.5431 38.0531C58.1134 38.0531 57.7243 38.1054 57.3121 38.3434C56.4526 38.837 55.5235 38.6977 54.5596 38.4363C54.8557 37.8208 55.1983 37.4608 55.8023 37.4434C56.1391 37.4318 56.4759 37.4434 56.743 37.1588C57.7302 36.131 59.089 35.7419 60.32 35.1438C60.6162 34.9986 60.8078 34.8709 60.8311 34.5399C61.4292 34.4005 62.2596 34.9928 62.5847 33.9882C65.2734 33.2101 67.9678 33.3495 70.6738 33.8721C70.7667 33.8895 70.8654 33.9186 70.9583 33.9186C72.8282 33.9011 74.669 34.1218 76.4866 34.5747C76.713 35.289 77.3402 35.0858 77.8221 35.1032C79.2216 35.1612 80.4701 35.6897 81.7128 36.2587C81.7941 36.4213 81.858 36.7059 81.9625 36.7233C82.8974 36.8801 82.9439 37.5363 82.9032 38.2796C82.8858 38.6048 82.9148 38.9358 82.9206 39.2609C81.9509 40.9275 80.563 41.5024 78.728 40.7533C77.7931 40.3759 76.893 40.3178 75.9465 40.341L75.9233 40.3294Z" fill="#E87625"/>
<path d="M156.572 176.159C155.294 176.867 154.051 177.64 152.571 177.878C151.438 177.907 150.288 177.599 149.22 178.342C148.86 178.592 148.273 178.546 147.867 178.174C147.455 177.796 146.949 177.715 146.555 178.058C146.09 178.458 145.591 178.435 145.062 178.435C144.528 178.435 144.075 178.551 143.581 178.853C142.693 179.399 141.694 179.661 140.585 179.62C138.413 179.539 136.236 179.562 134.064 179.62C132.781 179.655 131.695 179.51 130.707 178.482C129.685 177.425 129.465 176.223 130.527 175.137C131.033 174.62 131.439 174.08 131.776 173.412C132.2 172.57 132.502 171.67 133.042 170.869C133.924 169.562 134.778 168.215 135.487 166.804C136.154 165.48 136.671 164.069 137.147 162.664C137.368 162.025 137.995 161.56 137.949 160.852C137.867 159.545 138.518 158.436 138.866 157.246C138.988 156.828 139.069 156.415 139.145 155.991C139.348 154.871 138.971 153.57 140.097 152.711C140.167 152.658 140.126 152.449 140.126 152.316C140.103 150.109 140.196 147.914 140.782 145.765C141.003 144.952 141.532 144.151 140.904 143.251C140.753 143.03 140.841 142.577 140.928 142.258C141.352 140.661 141.352 138.989 141.375 137.392C141.456 131.713 141.642 126.028 140.939 120.354C140.608 117.695 140.806 114.994 140.382 112.3C139.993 109.815 140.254 107.242 139.47 104.757C138.924 103.015 139.104 101.133 138.884 99.3216C138.616 97.0801 137.908 94.9257 137.804 92.6436C137.682 89.9724 136.253 87.5335 136.172 84.8217C136.166 84.5952 136.003 84.3745 135.928 84.1481C135.638 83.2828 135.277 82.435 135.08 81.5524C134.627 79.5025 133.849 77.5514 133.042 75.6583C132.328 73.9859 131.764 72.2613 131.056 70.5889C130.028 68.1674 129.029 65.7343 127.85 63.3825C127.641 62.9702 127.537 62.4301 126.904 62.4243C125.905 60.8855 125.197 59.2015 124.732 57.442C124.337 55.938 124.32 54.3585 124.825 52.8719C125.737 50.1659 127.746 48.296 129.982 46.6933C131.747 45.4216 133.797 44.6377 135.835 43.9525C136.886 43.5982 137.96 43.215 139.151 43.2034C141.851 43.1743 144.545 43.1569 147.24 43.3195C147.577 44.208 148.355 43.7434 148.941 43.8828L148.982 43.9002C149.115 44.6203 149.679 44.4228 150.137 44.446C152.257 45.5319 154.377 46.612 156.2 48.1741C156.473 48.4064 156.763 48.5283 157.117 48.4935C157.332 49.0626 157.901 49.2832 158.296 49.6781C158.168 50.5782 158.674 51.4957 159.214 51.7918C160.497 52.4886 161.304 53.621 162.315 54.5559C163.511 55.6592 164.353 57.0064 164.492 58.7021C164.521 59.0331 164.69 59.4105 165.073 59.4454C165.694 59.5092 165.706 60.026 165.973 60.3977C166.478 61.0945 166.461 62.2443 167.611 62.4069C168.302 63.7076 168.929 65.0432 169.695 66.2975C171.484 69.2358 172.941 72.3426 174.387 75.4493C174.846 76.4364 175.322 77.4352 175.694 78.4573C176.269 80.0716 176.756 81.7149 177.221 83.3641C177.738 85.1991 178.336 87.0341 178.626 88.9097C179.004 91.3254 179.782 93.6656 179.921 96.122C179.939 96.4007 180.159 96.5226 180.38 96.6272C180.397 96.813 180.415 97.0046 180.432 97.1962C180.287 97.6724 180.374 98.1544 180.386 98.6306C180.421 100.361 180.694 102.068 180.897 103.781C181.21 106.447 181.158 109.147 181.373 111.83C181.716 116.104 181.53 120.395 181.507 124.68C181.507 125.401 181.385 126.121 181.594 126.835C181.594 127.026 181.594 127.224 181.588 127.416C181.344 128.728 181.1 130.046 181.129 131.376C181.193 134.552 180.397 137.647 180.328 140.812C180.328 140.957 180.304 141.102 180.258 141.236C179.747 142.775 179.555 144.389 179.201 145.969C179.068 146.009 178.853 146.009 178.806 146.102C177.958 147.734 177.024 149.354 177.523 151.323C177.511 151.474 177.5 151.63 177.488 151.781C176.873 151.834 176.588 152.292 176.338 152.757C175.92 153.553 175.549 154.377 175.142 155.178C174.416 156.613 173.824 158.105 172.622 159.284C172.012 159.882 171.519 160.73 171.664 161.723C170.949 162.908 170.195 164.063 169.271 165.097C168.627 164.998 168.191 165.352 167.773 165.776C166.769 166.804 165.996 168.058 164.736 168.848C164.434 169.04 164.254 169.4 164.068 169.754C163.441 170.968 162.448 171.897 161.31 172.588C159.899 173.441 158.639 174.516 157.17 175.27C156.862 175.427 156.531 175.723 156.566 176.182L156.572 176.159Z" fill="#E87625"/>
<path d="M184.985 173.807C184.044 174.463 182.877 174.51 181.849 174.951C181.501 175.102 181.118 175.125 180.949 175.538C179.492 175.584 178.203 176.223 176.867 176.705C175.659 176.641 174.416 176.566 173.273 176.902C171.06 177.559 168.929 177.291 166.786 176.722C166.269 176.583 165.735 176.182 166.002 175.59C166.211 175.12 166.444 174.632 167.007 174.278C169.841 172.495 172.57 170.561 174.869 168.087C175.665 167.234 176.536 166.444 177.372 165.625C177.697 165.654 177.889 165.474 178.11 165.259C179.172 164.232 180.165 163.175 180.868 161.822C181.635 160.347 182.668 159.011 183.475 157.554C183.928 156.741 183.998 155.695 184.521 154.946C185.119 154.099 185.49 153.233 185.763 152.252C186.408 149.952 187.494 147.815 188.074 145.458C188.748 142.717 189.271 139.93 190.113 137.229C190.258 136.759 190.496 136.045 189.665 135.772C189.689 135.296 189.712 134.82 189.735 134.343C190.368 134.012 190.821 133.565 190.775 132.781C190.583 129.651 191.17 126.539 191.053 123.409C190.96 120.912 190.676 118.427 190.769 115.918C190.769 115.773 190.769 115.622 190.728 115.488C190.194 113.81 190.124 112.074 190.211 110.343C190.339 107.719 189.689 105.198 189.247 102.655C189.038 101.441 189.154 100.14 188.493 99.0198C188.812 97.4577 187.784 96.1453 187.714 94.6239C187.616 92.2721 186.599 90.1003 186.117 87.8124C186.042 87.4582 185.804 87.3594 185.485 87.3594C185.037 87.0923 185.078 86.6278 185.008 86.2097C184.927 85.7335 184.904 85.2457 184.77 84.787C183.864 81.657 183.005 78.5097 182 75.4088C180.88 71.942 179.637 68.5217 178.052 65.2234C176.913 62.8542 175.607 60.5837 174.19 58.4003C172.523 55.8394 170.404 53.6095 168.145 51.5306C167.28 50.7351 166.426 49.9512 165.253 49.6376C164.818 48.935 164.138 48.4704 163.505 47.9884C163.041 47.6342 162.837 47.2103 162.745 46.6819C162.675 46.2696 162.797 45.776 163.116 45.6715C164.4 45.2534 165.561 44.452 166.955 44.3591C169.417 44.3707 171.885 44.4636 174.341 44.3649C175.648 44.3126 176.757 44.8585 177.918 45.2011C179.869 45.7702 181.594 46.9374 183.47 47.6516C184.933 48.2091 186.147 49.0046 187.331 49.9221C187.726 50.2241 188.196 50.3112 188.614 50.5435C189.34 50.9441 189.851 51.3855 190.362 52.0881C190.92 52.8488 191.959 53.3715 192.964 53.6502C193.301 53.7431 193.579 53.8534 193.829 54.1031C194.439 54.707 195.008 55.34 195.879 55.6362C196.233 55.7581 196.564 56.1588 196.738 56.5827C197.058 57.3666 197.598 57.9996 198.254 58.4816C199.804 59.6197 200.292 61.4373 201.21 62.9761C201.39 63.2781 201.529 63.5975 201.837 63.7078C202.685 64.0098 203.056 64.724 203.387 65.4441C203.922 66.6229 204.711 67.6333 205.478 68.6437C205.861 69.1489 206.244 69.7644 206.32 70.2638C206.506 71.5007 207.191 72.4763 207.69 73.5331C208.166 74.5377 208.346 75.6527 209.159 76.5702C209.636 77.1044 209.56 78.1961 209.903 78.9975C210.274 79.8685 210.675 80.7395 210.53 81.7383C210.466 82.1796 210.925 82.3829 211.029 82.7487C211.43 84.1017 212.045 85.3909 212.266 86.802C212.318 87.1504 212.533 87.2898 212.853 87.3246C212.864 87.4872 212.882 87.6556 212.893 87.8182C212.713 88.9215 212.562 90.141 212.899 91.1223C213.457 92.7308 213.027 94.4265 213.503 95.9073C214.217 98.1081 213.904 100.28 213.956 102.463C214.043 106.133 213.979 109.809 213.968 113.479C213.968 114.141 214.078 114.815 213.561 115.401C213.265 115.738 213.439 116.243 213.41 116.667C213.323 117.887 213.555 119.106 212.928 120.32C212.591 120.97 212.853 121.934 212.818 122.753C212.777 123.647 213.009 124.588 212.336 125.389C212.208 125.54 212.237 125.859 212.26 126.097C212.394 127.671 211.86 129.076 211.232 130.464C211.192 130.551 211.134 130.644 211.134 130.731C211.209 132.09 210.733 133.362 210.565 134.669C210.414 135.807 209.653 136.794 209.862 137.99C209.874 138.071 209.816 138.199 209.752 138.246C208.474 139.117 208.794 140.441 208.77 141.666C208.759 142.2 208.77 142.729 208.759 143.263C208.741 143.762 208.805 144.337 207.981 143.814C207.725 143.652 207.545 144.082 207.702 144.25C208.346 144.947 208.073 145.812 208.23 146.602C208.23 147.177 208.126 147.717 207.923 148.274C207.202 150.272 206.343 152.205 205.315 154.058C204.74 154.058 204.421 154.505 204.241 154.894C203.683 156.079 202.882 157.014 201.848 157.798C201.564 158.012 201.326 158.303 201.192 158.703C200.699 160.231 200.077 161.694 198.713 162.681C198.254 163.012 198.295 163.506 198.329 163.988C197.749 165.155 196.692 165.916 195.769 166.746C194.439 167.948 192.987 169.028 191.669 170.259C191.611 170.317 191.483 170.3 191.39 170.323C190.908 170.352 190.269 170.079 190.223 170.939C190.223 170.939 190.235 170.939 190.235 170.933C189.758 170.921 189.282 170.898 188.806 170.898C188.452 170.898 188.121 171.003 187.976 171.345C187.581 172.245 186.687 172.46 185.92 172.576C185.049 172.704 184.915 173.105 184.962 173.801L184.985 173.807Z" fill="#E87625"/>
<path d="M163.488 40.8979C162.065 40.7875 160.793 41.4379 159.458 41.7399C158.383 41.9838 157.489 42.1057 156.438 41.6063C154.051 40.474 151.554 39.69 148.97 39.0571C145.713 38.2615 142.472 38.5925 139.22 38.6274C138.297 38.639 137.385 39.1326 136.41 39.0513C136.172 39.0339 135.928 39.0571 135.684 39.0513C135.399 39.0455 135.26 38.8654 135.19 38.6099C135.121 38.3312 135.231 38.186 135.492 38.0583C136.172 37.7331 136.799 37.2511 137.507 37.0479C138.547 36.7459 139.522 36.2697 140.661 36.2059C141.624 36.1478 142.635 35.8749 143.558 35.5845C144.656 35.2361 145.736 35.2245 146.827 35.1955C148.326 35.1548 149.87 34.9864 151.305 35.2826C152.687 35.5729 154.167 35.4452 155.468 36.1246C155.59 36.1885 155.747 36.2059 155.892 36.2117C158.244 36.3104 160.404 37.1234 162.576 37.948C163.069 38.1338 163.546 38.2964 163.958 38.6099C164.928 39.3358 164.875 39.812 163.766 40.4566C163.569 40.5727 163.546 40.7527 163.464 40.9153H163.482L163.488 40.8979Z" fill="#E87625"/>
<path d="M45.7154 48.4356C47.3298 48.6388 48.7467 47.9594 50.2216 47.4832C52.1902 46.8445 54.089 45.9966 56.2608 46.107C58.7636 46.2289 61.278 46.1244 63.7866 46.1418C64.6809 46.1476 65.5229 46.2115 66.423 46.5599C67.2998 46.8909 68.316 47.1058 69.28 47.2684C70.1104 47.4077 70.482 48 70.9756 48.4994C71.1789 48.7085 71.0569 48.9059 70.9059 49.1324C70.6504 49.504 70.0581 49.6899 70.2091 50.3054H70.1917C69.0071 50.2938 68.3393 50.7932 67.8457 52.0649C67.8689 52.4598 67.625 52.5701 67.2882 52.5875C67.1895 52.5759 67.0792 52.5294 67.0037 52.5643C65.9526 53.0056 64.5183 52.7675 64.0305 54.2367C63.9608 54.4399 63.7228 54.6606 63.5195 54.7245C62.5439 55.0264 62.2304 56.1472 61.2838 56.484C61.0225 56.5769 60.9296 56.9021 60.8193 57.1808C60.407 58.2028 59.9018 59.1784 59.0191 59.8868C58.543 60.2701 58.4384 60.7463 58.572 61.3095L58.5081 61.2398L58.5778 61.3037C57.7068 61.3153 57.9565 61.9483 57.9507 62.4361L57.9565 62.4245C57.4803 62.4245 57.3293 62.6742 57.4164 63.1097C57.3874 63.2549 57.3584 63.4058 57.3351 63.551C56.2608 63.5104 56.0518 64.4975 55.6976 65.1189C54.6697 66.9132 53.8161 68.8005 52.8812 70.6529C52.6083 71.1987 52.7012 71.7736 52.736 72.3427C52.5851 73.7015 51.7547 74.8165 51.3772 76.0998C50.6804 78.469 49.6932 80.7512 49.1822 83.1843C49.0951 83.6024 48.9325 84.0146 48.7351 84.3921C47.9395 85.9193 48.166 87.673 47.6085 89.2757C46.7317 91.8017 46.6097 94.5194 45.9419 97.1151C45.5993 98.4333 45.6283 99.8676 45.2451 101.215C44.6005 103.491 44.5483 105.86 44.2405 108.183C43.9153 110.651 43.4682 113.119 43.4391 115.639C43.3753 121.191 43.1662 126.742 43.4972 132.288C43.6482 134.814 44.0663 137.322 44.4902 139.825C44.7283 141.236 45.1464 142.624 45.2451 144.058C44.798 146.189 45.6864 148.036 46.54 149.877C46.7026 150.225 46.8536 150.539 46.9059 150.928C47.1091 152.577 48.3286 153.721 49.0196 155.126C49.0428 155.167 49.1996 155.144 49.2925 155.15L49.2286 155.225L49.2867 155.15C49.0719 155.87 49.3216 156.526 49.7455 157.054C50.6107 158.14 50.8198 159.615 51.9115 160.562C52.0624 160.689 52.0566 161.003 52.1205 161.229C52.4573 162.362 52.6838 163.575 54.0542 163.976C54.2691 164.04 54.3271 164.22 54.42 164.388C55.2504 165.904 56.6964 166.932 57.55 168.442C57.8461 168.964 58.3107 169.377 58.6126 169.946C59.2398 171.113 60.6277 171.728 61.0632 173.081C62.3465 173.244 62.8343 174.597 63.955 175.027C64.4776 175.224 64.2976 175.764 64.2686 176.176C64.2454 176.525 63.9841 176.676 63.6705 176.676C62.6543 176.676 61.5219 176.949 60.6567 176.589C59.1353 175.956 57.6371 176.159 56.1157 176.147C55.6743 176.089 55.0995 176.327 54.9601 175.619C55.024 175.224 54.7975 174.963 54.513 174.777C53.6884 174.237 52.858 173.697 51.9986 173.203C50.5236 172.35 49.008 171.548 47.7711 170.341C47.4982 170.073 47.2078 169.864 46.8304 169.702C45.8722 169.289 44.9954 168.744 44.2231 167.989C43.5669 167.344 42.7075 166.926 42.0629 166.229C41.186 165.288 40.3673 164.284 39.1652 163.68C38.7936 163.494 38.7297 162.948 38.7587 162.501C38.7936 161.92 38.5787 161.56 37.9342 161.613C37.3767 161.659 37.0109 161.409 36.8134 160.898C36.5637 160.248 36.0527 159.801 35.6056 159.302C34.6184 158.204 33.9041 156.886 32.8589 155.841C31.2388 154.22 30.4432 152.113 29.5315 150.086C29.3457 149.668 29.1483 149.227 28.8057 149.064C27.8069 148.594 27.563 147.641 27.2088 146.776C26.6977 145.528 25.9196 144.494 24.9266 143.6C24.886 143.437 24.8395 143.269 24.7989 143.106C24.5724 142.084 24.0904 141.108 24.224 140.017C24.2414 139.889 24.1717 139.715 24.0846 139.616C22.7026 138.083 22.6329 136.022 21.8664 134.245C21.1928 132.671 21.2044 130.987 20.7921 129.373C20.6005 128.624 20.1707 127.996 19.9501 127.265C19.6365 126.225 19.2997 125.261 20.0372 124.257C20.3043 123.897 20.2811 123.386 20.0778 123.002C19.5378 121.998 19.3578 120.86 18.8642 119.849C18.5042 119.123 18.4287 118.38 18.4461 117.602C18.51 114.855 18.179 112.132 17.9409 109.397C17.7725 107.446 17.7725 105.465 18.0802 103.479C18.3125 102.016 18.179 100.489 18.1557 98.9907C18.1267 97.057 18.5216 95.1582 18.5042 93.2245C18.4983 92.4579 18.9513 91.674 19.2474 90.9191C19.3287 90.7159 19.5552 90.5591 19.5959 90.3094C19.7759 89.1944 20.6063 88.1376 19.6772 86.9239C19.381 86.5407 19.4739 85.7509 19.7178 85.2341C20.3275 83.9624 20.1882 82.5339 20.6701 81.2099C21.0824 80.0717 21.2044 78.7884 21.6399 77.6096C22.3309 75.734 22.6271 73.6957 24.0556 72.1453C24.1717 72.0175 24.2066 71.7969 24.2414 71.611C24.5782 69.6599 25.6118 68.0514 26.7906 66.53C27.2494 65.9319 27.2668 65.1828 27.6617 64.5672C27.9753 64.0794 28.1379 63.4929 28.887 63.5336C29.0147 63.5394 29.2644 63.4581 29.2702 63.4C29.3922 62.3896 30.6639 62.018 30.629 60.9553C30.6116 60.334 31.0181 59.9914 31.3839 59.6197C32.8008 58.197 34.2409 56.7917 35.6462 55.3574C35.9656 55.0322 36.4766 54.8 36.4127 54.2018C36.4476 53.8709 36.6218 53.6792 36.9644 53.6502C38.1722 54.0044 39.1885 53.2379 40.2221 52.9185C40.9828 52.6804 41.9409 51.9313 41.5809 50.7003C42.3416 50.8512 43.0501 50.8571 43.7004 50.2938C44.0431 49.9976 44.5076 49.7363 44.9489 49.6782C45.8026 49.5679 45.7271 49.0163 45.7096 48.4414L45.7154 48.4356Z" fill="#E87625"/>
<path d="M226.793 89.0912C199.008 93.4437 188.959 114.382 187.408 124.307L293.423 124.785C289.717 110.859 261.524 83.6506 226.793 89.0912Z" fill="#F74C40"/>
<path d="M233.988 76.4953C234.545 77.6733 238.664 84.8553 240.654 88.299C235.215 87.088 224.328 85.103 224.29 86.8511C224.252 88.5991 235.11 91.9437 240.544 93.3975L231.915 104.869C230.931 105.455 229.027 106.993 229.287 108.456C229.547 109.919 231.095 109.102 231.836 108.511L244.843 96.7698C247.004 97.9098 252.586 109.326 255.143 109.017C257.189 108.77 254.971 100.147 253.607 95.8669C260.371 97.5924 274.124 100.684 275.03 99.2463C275.936 97.8086 267.015 93.6073 262.442 91.6863C266.764 88.3795 274.975 81.6107 273.24 80.9901C271.504 80.3695 259.808 84.3423 254.176 86.4062C254.944 84.6011 256.861 80.1977 258.388 77.0245C260.295 73.058 260.343 70.873 256.353 70.0578C253.161 69.4056 249.893 71.1322 248.658 72.077L247.676 83.7148C243.855 80.7171 235.995 74.6442 235.128 74.3339C234.043 73.9461 233.291 75.0228 233.988 76.4953Z" fill="#38785E"/>
</svg>
