<svg width="255" height="199" viewBox="0 0 255 199" fill="none" xmlns="http://www.w3.org/2000/svg">
<path d="M28.1067 70.991C28.1067 81.3491 23.5853 89.693 21.3246 92.5703C11.8709 102.435 -5.31031 130.057 1.59504 161.624C10.2267 201.083 59.5507 207.865 87.2954 207.865C115.04 207.865 106.408 196.151 129.837 181.353C148.58 169.516 148.334 143.949 145.868 132.646C145.662 126.892 142.168 111.437 129.837 95.6531C114.424 75.9235 113.807 68.5248 99.6264 45.7125C85.4458 22.9002 73.7313 32.765 54.0017 32.765C34.2722 32.765 28.1067 58.0435 28.1067 70.991Z" fill="#FB8302"/>
<path d="M52.32 0.0878706C46.8944 1.07435 50.0593 8.71956 52.32 12.4189C60.3352 19.8174 59.102 35.2312 59.102 41.3967C59.102 47.5622 68.9668 49.4119 68.9668 36.4643C68.9668 26.1063 64.8565 14.8851 62.8013 10.5692C61.5682 6.6644 57.7456 -0.898609 52.32 0.0878706Z" fill="#503931"/>
<path d="M104.368 260.272C102.888 267.177 107.039 268.492 109.3 268.287C116.698 263.971 127.18 268.287 148.759 270.753C170.338 273.219 185.136 256.572 190.685 249.174C196.234 241.775 212.264 238.693 214.113 210.948C215.963 183.203 202.399 168.406 198.7 163.474C195 158.541 189.451 164.707 180.82 171.489C172.188 178.271 142.594 173.338 133.962 173.338C125.33 173.338 125.947 170.256 120.398 173.338C114.849 176.421 104.368 187.519 100.668 196.767C96.969 206.015 95.7359 222.662 100.668 235.61C105.601 248.557 106.217 251.64 104.368 260.272Z" fill="#F9E965"/>
<path d="M107.279 146.827C101.731 148.676 100.497 150.526 99.8809 153.609C109.129 156.075 118.377 167.789 130.092 167.789C141.806 167.789 171.401 169.022 176.95 167.789C182.498 166.556 192.363 160.391 193.596 155.458C194.829 150.526 203.461 149.293 207.777 143.744C212.093 138.195 200.995 124.014 181.265 122.165C152.904 121.548 146.122 128.947 133.791 131.413C121.46 133.879 112.828 144.977 107.279 146.827Z" fill="#224724"/>
<path d="M218.875 146.827C212.956 146.827 216.409 152.581 218.875 155.458C218.053 156.075 216.409 158.295 216.409 162.24C216.409 167.173 215.176 170.872 215.176 190.602C215.176 210.331 245.387 230.677 249.702 233.144C254.018 235.61 255.251 234.377 252.785 211.564C255.251 187.519 252.169 170.872 247.853 161.007C243.537 151.143 226.274 146.827 218.875 146.827Z" fill="#224724"/>
<path d="M197.296 159.774C196.309 157.308 199.762 154.636 201.612 153.609L220.725 133.879C223.397 130.796 229.48 124.261 232.439 122.781C235.399 121.302 235.316 123.398 234.905 124.631C229.356 130.18 208.394 151.759 206.544 153.609C204.695 155.458 198.529 162.857 197.296 159.774Z" fill="#224724"/>
</svg>
