<svg width="269" height="236" viewBox="0 0 269 236" fill="none" xmlns="http://www.w3.org/2000/svg">
<path d="M52.32 0.0878706C46.8944 1.07435 50.0593 8.71956 52.32 12.4189C60.3352 19.8174 59.102 35.2312 59.102 41.3967C59.102 47.5622 68.9668 49.4119 68.9668 36.4643C68.9668 26.1063 64.8565 14.8851 62.8013 10.5692C61.5682 6.6644 57.7456 -0.898609 52.32 0.0878706Z" fill="#503931"/>
<path fill-rule="evenodd" clip-rule="evenodd" d="M54.0019 32.7648C54.7192 32.7648 55.4258 32.7518 56.1224 32.7277C56.2026 35.0251 56.1645 37.1668 56.1318 39.0062V39.0064V39.0065C56.1164 39.8759 56.1021 40.6778 56.1021 41.3967C56.1021 46.1444 60.0418 49.7581 64.4976 49.0619C69.2175 48.3244 71.9669 43.4353 71.9669 36.4643C71.9669 34.6598 71.8507 32.8363 71.6469 31.0287C81.9222 29.8284 90.2333 30.6015 99.6265 45.7123C105.241 54.7443 108.729 61.3601 111.851 67.2816C116.615 76.3162 120.526 83.7347 129.837 95.6529C142.168 111.437 145.662 126.891 145.868 132.646C146.466 135.39 146.934 138.975 147.032 143H0.101562C1.34785 119.572 13.7904 100.432 21.3248 92.5701C23.5854 89.6929 28.1068 81.3489 28.1068 70.9909C28.1068 58.0433 34.2723 32.7648 54.0019 32.7648Z" fill="#FB8302"/>
<path d="M118.953 225.143C117.473 232.049 121.624 233.364 123.885 233.159C131.283 228.843 141.765 233.159 163.344 235.625C184.923 238.091 199.721 221.444 205.27 214.045C210.818 206.647 226.849 203.564 228.698 175.819C230.548 148.075 216.984 133.277 213.285 128.345C209.585 123.413 204.036 129.578 195.405 136.36C186.773 143.142 157.179 138.21 148.547 138.21C139.915 138.21 140.532 135.127 134.983 138.21C129.434 141.293 118.953 152.391 115.253 161.639C111.554 170.887 110.321 187.534 115.253 200.481C120.186 213.429 120.802 216.512 118.953 225.143Z" fill="#F9E965"/>
<path d="M121.865 111.698C116.316 113.548 115.083 115.398 114.467 118.48C123.715 120.947 132.963 132.661 144.678 132.661C156.392 132.661 185.987 133.894 191.535 132.661C197.084 131.428 206.949 125.262 208.182 120.33C209.415 115.398 218.047 114.164 222.363 108.616C226.679 103.067 215.581 88.8859 195.851 87.0363C167.49 86.4198 160.708 93.8184 148.377 96.2846C136.046 98.7508 127.414 109.849 121.865 111.698Z" fill="#224724"/>
<path d="M233.461 111.698C227.542 111.698 230.995 117.453 233.461 120.33C232.639 120.946 230.995 123.166 230.995 127.112C230.995 132.044 229.762 135.744 229.762 155.473C229.762 175.203 259.972 195.549 264.288 198.015C268.604 200.481 269.837 199.248 267.371 176.436C269.837 152.391 266.755 135.744 262.439 125.879C258.123 116.014 240.859 111.698 233.461 111.698Z" fill="#224724"/>
<path d="M211.881 124.646C210.894 122.18 214.347 119.508 216.197 118.48L235.31 98.7506C237.981 95.6679 244.065 89.1325 247.024 87.6527C249.984 86.173 249.901 88.2693 249.49 89.5024C243.941 95.0513 222.979 116.631 221.129 118.48C219.279 120.33 213.114 127.728 211.881 124.646Z" fill="#224724"/>
</svg>
