<svg xmlns="http://www.w3.org/2000/svg" width="35" height="35" viewBox="0 0 35 35" fill="none">
    <path d="M26.0002 13.2497H28.8335C29.5849 13.2497 30.3056 13.5482 30.837 14.0795C31.3683 14.6109 31.6668 15.3316 31.6668 16.083V31.6663L26.0002 25.9997H17.5002C16.7487 25.9997 16.028 25.7012 15.4967 25.1698C14.9653 24.6385 14.6668 23.9178 14.6668 23.1663V21.7497M20.3335 13.2497C20.3335 14.0011 20.035 14.7218 19.5036 15.2531C18.9723 15.7845 18.2516 16.083 17.5002 16.083H9.00016L3.3335 21.7497V6.16634C3.3335 4.60801 4.6085 3.33301 6.16683 3.33301H17.5002C18.2516 3.33301 18.9723 3.63152 19.5036 4.16287C20.035 4.69422 20.3335 5.41489 20.3335 6.16634V13.2497Z" stroke="#147575" stroke-width="2" stroke-linecap="round" stroke-linejoin="round"/>
</svg>