<svg xmlns="http://www.w3.org/2000/svg" width="24" height="24" viewBox="0 0 24 24" fill="none">
    <path fill-rule="evenodd" clip-rule="evenodd" d="M22.56 16.2999L14.89 3.57994C14.2597 2.59394 13.1702 1.99731 12 1.99731C10.8297 1.99731 9.74026 2.59394 9.10998 3.57994L1.43998 16.2999C0.888525 17.2192 0.869464 18.3628 1.38998 19.2999C1.99195 20.3551 3.11521 21.0046 4.32998 20.9999H19.67C20.8765 21.0128 21.9978 20.3797 22.61 19.3399C23.1461 18.3926 23.1269 17.2292 22.56 16.2999ZM12 16.9999C11.4477 16.9999 11 16.5522 11 15.9999C11 15.4477 11.4477 14.9999 12 14.9999C12.5523 14.9999 13 15.4477 13 15.9999C13 16.5522 12.5523 16.9999 12 16.9999ZM12 13.9999C12.5523 13.9999 13 13.5522 13 12.9999V8.99994C13 8.44765 12.5523 7.99994 12 7.99994C11.4477 7.99994 11 8.44765 11 8.99994V12.9999C11 13.5522 11.4477 13.9999 12 13.9999Z" fill="#FFAB00"/>
</svg>