<svg xmlns="http://www.w3.org/2000/svg" width="24" height="24" viewBox="0 0 24 24" fill="none">
    <path fill-rule="evenodd" clip-rule="evenodd" d="M1.60598 6.07974C1.72673 6.02804 1.85648 6.00064 1.98782 5.99909C2.11916 5.99755 2.24952 6.0219 2.37145 6.07074C2.49338 6.11959 2.60449 6.19198 2.69844 6.28377C2.79238 6.37557 2.86733 6.48497 2.91899 6.60574L1.99999 6.99974L2.91999 6.60574L2.92299 6.61374L2.94399 6.65874C2.96399 6.70074 2.99499 6.76674 3.03799 6.85274C3.12399 7.02474 3.25698 7.27674 3.43798 7.58174C3.91507 8.38363 4.47478 9.13339 5.10799 9.81874C5.2977 10.0229 5.49448 10.2203 5.69799 10.4107C7.17999 11.7997 9.25098 12.9997 12 12.9997C13.1017 13.0046 14.1944 12.8003 15.22 12.3977C16.447 11.9147 17.474 11.1877 18.316 10.3997C19.4412 9.33045 20.3667 8.06903 21.049 6.67474L21.076 6.61674L21.081 6.60574C21.1879 6.36574 21.3851 6.17749 21.6297 6.08168C21.8744 5.98587 22.1469 5.9902 22.3884 6.09374C22.6299 6.19727 22.8209 6.39169 22.9202 6.63496C23.0195 6.87822 23.0191 7.15079 22.919 7.39374L22.917 7.39874L22.913 7.40674L22.902 7.43274L22.862 7.51974C22.6398 7.98227 22.3924 8.43228 22.121 8.86774C21.6213 9.67078 21.0485 10.426 20.41 11.1237L21.207 11.9207C21.3946 12.1082 21.5001 12.3626 21.5002 12.6279C21.5003 12.8932 21.395 13.1476 21.2075 13.3352C21.02 13.5229 20.7656 13.6283 20.5003 13.6284C20.2351 13.6285 19.9806 13.5232 19.793 13.3357L18.953 12.4957C18.3625 12.9745 17.7273 13.3951 17.056 13.7517L17.838 14.9537C17.9118 15.0638 17.9629 15.1873 17.9886 15.3173C18.0142 15.4473 18.0137 15.581 17.9872 15.7108C17.9607 15.8406 17.9086 15.9638 17.8341 16.0734C17.7595 16.1829 17.664 16.2765 17.553 16.3487C17.442 16.421 17.3177 16.4705 17.1874 16.4943C17.0571 16.5182 16.9233 16.5159 16.7939 16.4876C16.6645 16.4593 16.542 16.4056 16.4335 16.3296C16.325 16.2535 16.2327 16.1567 16.162 16.0447L15.176 14.5307C14.497 14.7387 13.772 14.8857 13 14.9547V16.4997C13 16.765 12.8946 17.0193 12.7071 17.2068C12.5196 17.3944 12.2652 17.4997 12 17.4997C11.7348 17.4997 11.4804 17.3944 11.2929 17.2068C11.1053 17.0193 11 16.765 11 16.4997V14.9557C10.225 14.8857 9.49998 14.7387 8.82299 14.5307L7.83799 16.0447C7.69009 16.2592 7.46432 16.4075 7.20874 16.4581C6.95315 16.5086 6.68793 16.4574 6.46953 16.3154C6.25112 16.1733 6.09677 15.9517 6.03933 15.6975C5.98189 15.4434 6.0259 15.1769 6.16199 14.9547L6.94398 13.7517C6.24399 13.3817 5.61199 12.9517 5.04699 12.4947L4.20698 13.3347C4.01838 13.5169 3.76578 13.6177 3.50358 13.6154C3.24139 13.6131 2.99057 13.508 2.80517 13.3226C2.61976 13.1371 2.51459 12.8863 2.51231 12.6241C2.51003 12.3619 2.61083 12.1093 2.79299 11.9207L3.58998 11.1237C2.88256 10.3499 2.25598 9.50585 1.71999 8.60473C1.50588 8.24513 1.30866 7.87572 1.12899 7.49774C1.11781 7.47382 1.10681 7.44982 1.09599 7.42574L1.08599 7.40474L1.08399 7.39773L1.08298 7.39574C1.07999 7.39574 1.07999 7.39374 1.99999 6.99974L1.08099 7.39474C1.0291 7.27399 1.00153 7.14421 0.999839 7.01281C0.998148 6.8814 1.02237 6.75095 1.07113 6.62892C1.11989 6.50688 1.19223 6.39566 1.284 6.30159C1.37577 6.20753 1.48519 6.13148 1.60598 6.07974Z" fill="#637381"/>
</svg>