<svg xmlns="http://www.w3.org/2000/svg" width="20" height="20" viewBox="0 0 20 20" fill="none">
    <path fill-rule="evenodd" clip-rule="evenodd" d="M9.99501 11.1738L14.7069 15.886C14.864 16.0378 15.0744 16.1217 15.2928 16.1198C15.5112 16.1179 15.7201 16.0303 15.8745 15.8759C16.029 15.7215 16.1166 15.5125 16.1184 15.2941C16.1203 15.0757 16.0364 14.8653 15.8847 14.7082L11.1728 9.99597L15.8847 5.28375C16.0364 5.12664 16.1203 4.91623 16.1184 4.69782C16.1166 4.47942 16.029 4.27049 15.8745 4.11605C15.7201 3.9616 15.5112 3.874 15.2928 3.8721C15.0744 3.8702 14.864 3.95416 14.7069 4.1059L9.99501 8.81813L5.28312 4.1059C5.12532 3.95792 4.91614 3.87713 4.69985 3.88065C4.48355 3.88416 4.2771 3.97169 4.12419 4.12472C3.97128 4.27775 3.8839 4.48427 3.88054 4.70059C3.87718 4.91691 3.9581 5.12604 4.10619 5.28375L8.81725 9.99597L4.10536 14.7082C4.0258 14.785 3.96235 14.877 3.9187 14.9786C3.87504 15.0802 3.85207 15.1895 3.85111 15.3001C3.85014 15.4107 3.87122 15.5204 3.9131 15.6228C3.95498 15.7252 4.01683 15.8182 4.09503 15.8964C4.17324 15.9746 4.26624 16.0364 4.3686 16.0783C4.47097 16.1202 4.58065 16.1413 4.69124 16.1403C4.80184 16.1394 4.91114 16.1164 5.01276 16.0727C5.11438 16.0291 5.20629 15.9656 5.28312 15.886L9.99501 11.1738Z" fill="#637381"/>
</svg>