<svg xmlns="http://www.w3.org/2000/svg" width="18" height="18" viewBox="0 0 18 18" fill="none">
    <path fill-rule="evenodd" clip-rule="evenodd" d="M8.99564 10.0564L13.2363 14.2974C13.3777 14.434 13.5671 14.5096 13.7636 14.5079C13.9602 14.5062 14.1482 14.4273 14.2872 14.2883C14.4262 14.1493 14.505 13.9613 14.5067 13.7647C14.5084 13.5681 14.4329 13.3788 14.2963 13.2374L10.0556 8.99638L14.2963 4.75537C14.4329 4.61398 14.5084 4.42461 14.5067 4.22804C14.505 4.03147 14.4262 3.84344 14.2872 3.70444C14.1482 3.56544 13.9602 3.4866 13.7636 3.48489C13.5671 3.48318 13.3777 3.55875 13.2363 3.69531L8.99564 7.93631L4.75494 3.69531C4.61292 3.56212 4.42466 3.48942 4.22999 3.49258C4.03532 3.49574 3.84952 3.57452 3.7119 3.71225C3.57428 3.84998 3.49564 4.03585 3.49261 4.23053C3.48959 4.42521 3.56242 4.61344 3.6957 4.75537L7.93565 8.99638L3.69495 13.2374C3.62335 13.3065 3.56624 13.3893 3.52696 13.4807C3.48767 13.5722 3.46699 13.6706 3.46612 13.7701C3.46526 13.8697 3.48423 13.9684 3.52192 14.0605C3.55961 14.1526 3.61527 14.2363 3.68566 14.3067C3.75604 14.3771 3.83974 14.4328 3.93187 14.4705C4.024 14.5082 4.12271 14.5272 4.22225 14.5263C4.32178 14.5254 4.42015 14.5047 4.51161 14.4654C4.60307 14.4262 4.68579 14.369 4.75494 14.2974L8.99564 10.0564Z" fill="#637381"/>
</svg>