<svg xmlns="http://www.w3.org/2000/svg" width="20" height="20" viewBox="0 0 20 20" fill="none">
    <path d="M18.3332 10.5818C18.3315 11.8068 18.3223 12.8468 18.2532 13.701C18.1723 14.6927 18.0065 15.521 17.6365 16.2085C17.475 16.51 17.2701 16.786 17.0282 17.0277C16.334 17.7218 15.4507 18.036 14.3307 18.186C13.2365 18.3335 11.8332 18.3335 10.044 18.3335H9.95567C8.16567 18.3335 6.764 18.3335 5.669 18.186C4.54984 18.036 3.66567 17.7218 2.97234 17.0277C2.35734 16.4127 2.039 15.6477 1.87067 14.6985C1.704 13.7652 1.674 12.6052 1.66817 11.1643C1.6665 10.7977 1.6665 10.4102 1.6665 10.0002V9.95518C1.6665 8.16518 1.6665 6.76352 1.814 5.66852C1.964 4.54935 2.27817 3.66518 2.97234 2.97185C3.66567 2.27768 4.54984 1.96352 5.669 1.81352C6.64234 1.68268 7.894 1.66768 9.41817 1.66602C9.57244 1.66602 9.72039 1.7273 9.82947 1.83638C9.93856 1.94547 9.99984 2.09341 9.99984 2.24768C9.99984 2.40195 9.93856 2.5499 9.82947 2.65898C9.72039 2.76807 9.57244 2.82935 9.41817 2.82935C7.87234 2.83102 6.72317 2.84435 5.824 2.96518C4.83317 3.09852 4.23567 3.35185 3.794 3.79352C3.35234 4.23518 3.09984 4.83352 2.9665 5.82518C2.83067 6.83352 2.829 8.15685 2.829 10.0002V10.6535L3.60567 9.97518C3.94611 9.67732 4.38702 9.51996 4.83913 9.53497C5.29123 9.54997 5.72074 9.73623 6.04067 10.056L9.36567 13.381C9.62364 13.6391 9.96441 13.798 10.328 13.8295C10.6915 13.8611 11.0546 13.7633 11.3532 13.5535L11.5848 13.391C12.0155 13.0883 12.5361 12.9407 13.0615 12.9724C13.587 13.004 14.0861 13.213 14.4773 13.5652L16.6715 15.5402C16.8923 15.076 17.024 14.4668 17.094 13.6068C17.1598 12.7968 17.169 11.8135 17.1698 10.5818C17.1698 10.4276 17.2311 10.2796 17.3402 10.1705C17.4493 10.0615 17.5972 10.0002 17.7515 10.0002C17.9058 10.0002 18.0537 10.0615 18.1628 10.1705C18.2719 10.2796 18.3332 10.4276 18.3332 10.5818Z" fill="#637381"/>
    <path fill-rule="evenodd" clip-rule="evenodd" d="M14.5832 9.16685C12.8157 9.16685 11.9315 9.16685 11.3823 8.61768C10.8332 8.06852 10.8332 7.18435 10.8332 5.41685C10.8332 3.64935 10.8332 2.76518 11.3823 2.21602C11.9315 1.66685 12.8157 1.66685 14.5832 1.66685C16.3507 1.66685 17.2348 1.66685 17.784 2.21602C18.3332 2.76518 18.3332 3.64935 18.3332 5.41685C18.3332 7.18435 18.3332 8.06852 17.784 8.61768C17.2348 9.16685 16.3507 9.16685 14.5832 9.16685ZM15.2082 3.75018C15.2082 3.58442 15.1423 3.42545 15.0251 3.30824C14.9079 3.19103 14.7489 3.12518 14.5832 3.12518C14.4174 3.12518 14.2584 3.19103 14.1412 3.30824C14.024 3.42545 13.9582 3.58442 13.9582 3.75018V4.79185H12.9165C12.7507 4.79185 12.5918 4.8577 12.4746 4.97491C12.3574 5.09212 12.2915 5.25109 12.2915 5.41685C12.2915 5.58261 12.3574 5.74158 12.4746 5.85879C12.5918 5.976 12.7507 6.04185 12.9165 6.04185H13.9582V7.08352C13.9582 7.24928 14.024 7.40825 14.1412 7.52546C14.2584 7.64267 14.4174 7.70852 14.5832 7.70852C14.7489 7.70852 14.9079 7.64267 15.0251 7.52546C15.1423 7.40825 15.2082 7.24928 15.2082 7.08352V6.04185H16.2498C16.4156 6.04185 16.5746 5.976 16.6918 5.85879C16.809 5.74158 16.8748 5.58261 16.8748 5.41685C16.8748 5.25109 16.809 5.09212 16.6918 4.97491C16.5746 4.8577 16.4156 4.79185 16.2498 4.79185H15.2082V3.75018Z" fill="#637381"/>
</svg>