<svg xmlns="http://www.w3.org/2000/svg" width="20" height="20" viewBox="0 0 20 20" fill="none">
    <g opacity="0.48">
        <path fill-rule="evenodd" clip-rule="evenodd" d="M18.3332 10.0001C18.3332 14.6026 14.6023 18.3334 9.99984 18.3334C5.39734 18.3334 1.6665 14.6026 1.6665 10.0001C1.6665 5.39758 5.39734 1.66675 9.99984 1.66675C14.6023 1.66675 18.3332 5.39758 18.3332 10.0001ZM7.47484 7.47508C7.59203 7.35804 7.75088 7.2923 7.9165 7.2923C8.08213 7.2923 8.24098 7.35804 8.35817 7.47508L9.99984 9.11675L11.6415 7.47508C11.76 7.36468 11.9167 7.30458 12.0786 7.30744C12.2405 7.31029 12.395 7.37589 12.5095 7.4904C12.624 7.60491 12.6896 7.7594 12.6925 7.92131C12.6953 8.08323 12.6352 8.23994 12.5248 8.35841L10.8832 10.0001L12.5248 11.6417C12.6352 11.7602 12.6953 11.9169 12.6925 12.0789C12.6896 12.2408 12.624 12.3953 12.5095 12.5098C12.395 12.6243 12.2405 12.6899 12.0786 12.6927C11.9167 12.6956 11.76 12.6355 11.6415 12.5251L9.99984 10.8834L8.35817 12.5251C8.23969 12.6355 8.08299 12.6956 7.92107 12.6927C7.75915 12.6899 7.60466 12.6243 7.49015 12.5098C7.37564 12.3953 7.31005 12.2408 7.30719 12.0789C7.30433 11.9169 7.36444 11.7602 7.47484 11.6417L9.1165 10.0001L7.47484 8.35841C7.3578 8.24123 7.29205 8.08237 7.29205 7.91675C7.29205 7.75112 7.3578 7.59227 7.47484 7.47508Z" fill="#212B36"/>
    </g>
</svg>