<svg xmlns="http://www.w3.org/2000/svg" width="24" height="24" viewBox="0 0 24 24" fill="none">
    <path fill-rule="evenodd" clip-rule="evenodd" d="M12.0062 13.4086L6.35191 19.0633C6.1634 19.2453 5.91092 19.3461 5.64885 19.3438C5.38678 19.3415 5.13609 19.2364 4.95077 19.0511C4.76545 18.8657 4.66034 18.615 4.65806 18.353C4.65578 18.0909 4.75653 17.8384 4.9386 17.6498L10.5929 11.9952L4.9386 6.3405C4.75653 6.15197 4.65578 5.89948 4.65806 5.63739C4.66034 5.3753 4.76545 5.12459 4.95077 4.93926C5.13609 4.75393 5.38678 4.6488 5.64885 4.64652C5.91092 4.64424 6.1634 4.745 6.35191 4.92708L12.0062 10.5818L17.6604 4.92708C17.8498 4.7495 18.1008 4.65256 18.3604 4.65677C18.6199 4.66099 18.8677 4.76603 19.0512 4.94967C19.2347 5.1333 19.3395 5.38113 19.3435 5.64071C19.3476 5.90029 19.2505 6.15125 19.0728 6.3405L13.4195 11.9952L19.0738 17.6498C19.1692 17.742 19.2454 17.8523 19.2978 17.9743C19.3501 18.0963 19.3777 18.2274 19.3789 18.3601C19.38 18.4929 19.3547 18.6245 19.3045 18.7473C19.2542 18.8702 19.18 18.9818 19.0862 19.0756C18.9923 19.1695 18.8807 19.2437 18.7579 19.294C18.635 19.3442 18.5034 19.3695 18.3707 19.3684C18.238 19.3672 18.1068 19.3397 17.9849 19.2873C17.8629 19.2349 17.7527 19.1587 17.6604 19.0633L12.0062 13.4086Z" fill="white"/>
</svg>