<svg xmlns="http://www.w3.org/2000/svg" width="20" height="20" viewBox="0 0 20 20" fill="none">
    <path fill-rule="evenodd" clip-rule="evenodd" d="M11.5028 4.44493C11.5028 2.91159 12.7528 1.66743 14.2928 1.66743C14.6584 1.66655 15.0207 1.7377 15.3588 1.87681C15.6969 2.01591 16.0043 2.22026 16.2635 2.47817C16.5226 2.73609 16.7285 3.04252 16.8692 3.37998C17.0099 3.71744 17.0828 4.07931 17.0837 4.44493C17.0837 5.97909 15.8337 7.22326 14.2928 7.22326C13.9233 7.22372 13.5574 7.15072 13.2163 7.00852C12.8753 6.86632 12.5659 6.65775 12.3062 6.39493L8.44366 9.02493C8.55123 9.56076 8.49848 10.1164 8.29199 10.6224L12.527 13.4058C13.0258 12.999 13.65 12.7772 14.2937 12.7783C14.6593 12.7775 15.0215 12.8488 15.3596 12.988C15.6976 13.1272 16.005 13.3316 16.2641 13.5896C16.5231 13.8476 16.7289 14.1541 16.8695 14.4916C17.0101 14.8291 17.0829 15.191 17.0837 15.5566C17.0837 17.0899 15.8337 18.3341 14.2928 18.3341C13.5546 18.3356 12.8459 18.0439 12.3227 17.5231C11.7995 17.0022 11.5046 16.2949 11.5028 15.5566C11.5022 15.1671 11.5843 14.782 11.7437 14.4266L7.54199 11.6674C7.03317 12.1099 6.38126 12.3529 5.70699 12.3516C5.34134 12.3525 4.9791 12.2813 4.64096 12.1421C4.30283 12.0029 3.99543 11.7985 3.73634 11.5405C3.47724 11.2825 3.27152 10.976 3.13093 10.6384C2.99035 10.3009 2.91765 9.93891 2.91699 9.57326C2.91776 9.20768 2.99054 8.84583 3.13117 8.50838C3.27181 8.17092 3.47754 7.86448 3.73663 7.60656C3.99572 7.34863 4.30308 7.14427 4.64116 7.00516C4.97924 6.86604 5.34141 6.79488 5.70699 6.79576C6.59366 6.79576 7.38199 7.20659 7.89283 7.84659L11.637 5.29743C11.5479 5.02204 11.5026 4.73437 11.5028 4.44493Z" fill="#637381"/>
</svg>