<svg xmlns="http://www.w3.org/2000/svg" width="16" height="16" viewBox="0 0 16 16" fill="none">
    <path fill-rule="evenodd" clip-rule="evenodd" d="M7.99967 1.33334C4.31778 1.33334 1.33301 4.31811 1.33301 8.00001C1.33301 11.6819 4.31778 14.6667 7.99967 14.6667C11.6816 14.6667 14.6663 11.6819 14.6663 8.00001C14.6663 6.2319 13.964 4.53621 12.7137 3.28596C11.4635 2.03572 9.76778 1.33334 7.99967 1.33334ZM8.66634 10.6667C8.66634 11.0349 8.36786 11.3333 7.99967 11.3333C7.63148 11.3333 7.33301 11.0349 7.33301 10.6667V7.33334C7.33301 6.96515 7.63148 6.66668 7.99967 6.66668C8.36786 6.66668 8.66634 6.96515 8.66634 7.33334V10.6667ZM7.33301 5.33334C7.33301 5.70153 7.63148 6.00001 7.99967 6.00001C8.36786 6.00001 8.66634 5.70153 8.66634 5.33334C8.66634 4.96515 8.36786 4.66668 7.99967 4.66668C7.63148 4.66668 7.33301 4.96515 7.33301 5.33334Z" fill="#637381"/>
</svg>