<svg xmlns="http://www.w3.org/2000/svg" width="24" height="24" viewBox="0 0 24 24" fill="none">
    <path d="M2 12C2 6.477 6.477 2 12 2C17.523 2 22 6.477 22 12C22 17.523 17.523 22 12 22C6.477 22 2 17.523 2 12ZM4 12C4 14.1217 4.84285 16.1566 6.34315 17.6569C7.84344 19.1571 9.87827 20 12 20C14.1217 20 16.1566 19.1571 17.6569 17.6569C19.1571 16.1566 20 14.1217 20 12C20 9.87827 19.1571 7.84344 17.6569 6.34315C16.1566 4.84285 14.1217 4 12 4C9.87827 4 7.84344 4.84285 6.34315 6.34315C4.84285 7.84344 4 9.87827 4 12Z" fill="#1C1C1C"/>
    <path fill-rule="evenodd" clip-rule="evenodd" d="M7.1089 8.52306C5.43897 10.8663 5.65512 14.1403 7.75734 16.2426C9.85957 18.3448 13.1337 18.5609 15.4769 16.891L7.1089 8.52306ZM16.8911 15.4768C18.561 13.1336 18.3449 9.85952 16.2426 7.75729C14.1404 5.65507 10.8663 5.43892 8.52311 7.10885L16.8911 15.4768Z" fill="#1C1C1C"/>
</svg>