<svg xmlns="http://www.w3.org/2000/svg" width="18" height="18" viewBox="0 0 18 18" fill="none">
    <path d="M8.54977 13.6133L14.0968 8.06634C13.1635 7.6767 12.3159 7.1074 11.6023 6.39084C10.8854 5.677 10.3158 4.82917 9.92602 3.89559L4.37902 9.44259C3.94627 9.87534 3.72952 10.0921 3.54352 10.3306C3.32385 10.612 3.13549 10.9166 2.98177 11.2388C2.85202 11.5118 2.75527 11.8028 2.56177 12.3833L1.54027 15.4456C1.49326 15.5858 1.48628 15.7363 1.52013 15.8803C1.55398 16.0243 1.62731 16.1559 1.73187 16.2605C1.83644 16.3651 1.9681 16.4384 2.11206 16.4722C2.25602 16.5061 2.40656 16.4991 2.54677 16.4521L5.60902 15.4306C6.19027 15.2371 6.48052 15.1403 6.75352 15.0106C7.07602 14.8568 7.38052 14.6686 7.66177 14.4488C7.90027 14.2628 8.11702 14.0461 8.54977 13.6133ZM15.6358 6.52734C16.1888 5.97426 16.4996 5.22413 16.4996 4.44196C16.4996 3.6598 16.1888 2.90966 15.6358 2.35659C15.0827 1.80351 14.3326 1.4928 13.5504 1.4928C12.7682 1.4928 12.0181 1.80351 11.465 2.35659L10.7998 3.02184L10.8283 3.10509C11.1561 4.04313 11.6926 4.89452 12.3973 5.59509C13.1188 6.32086 14 6.86792 14.9705 7.19259L15.6358 6.52734Z" fill="#212B36"/>
</svg>