<svg xmlns="http://www.w3.org/2000/svg" width="25" height="24" viewBox="0 0 25 24" fill="none">
    <path d="M11.9 18.1511L19.296 10.7551C18.0517 10.2356 16.9216 9.47653 15.97 8.52111C15.0142 7.56932 14.2547 6.43888 13.735 5.19411L6.33902 12.5901C5.76202 13.1671 5.47302 13.4561 5.22502 13.7741C4.93213 14.1494 4.68098 14.5554 4.47602 14.9851C4.30302 15.3491 4.17402 15.7371 3.91602 16.5111L2.55402 20.5941C2.49133 20.7811 2.48203 20.9818 2.52716 21.1737C2.57229 21.3657 2.67007 21.5412 2.80949 21.6806C2.94891 21.8201 3.12446 21.9178 3.31641 21.963C3.50835 22.0081 3.70907 21.9988 3.89602 21.9361L7.97902 20.5741C8.75402 20.3161 9.14102 20.1871 9.50502 20.0141C9.93502 19.8091 10.341 19.5581 10.716 19.2651C11.034 19.0171 11.323 18.7281 11.9 18.1511ZM21.348 8.70311C22.0855 7.96567 22.4997 6.9655 22.4997 5.92261C22.4997 4.87972 22.0855 3.87954 21.348 3.14211C20.6106 2.40467 19.6104 1.99039 18.5675 1.99039C17.5246 1.99039 16.5245 2.40467 15.787 3.14211L14.9 4.02911L14.938 4.14011C15.3751 5.39083 16.0904 6.52601 17.03 7.46011C17.992 8.42781 19.167 9.15722 20.461 9.59011L21.348 8.70311Z" fill="#637381"/>
</svg>