<svg xmlns="http://www.w3.org/2000/svg" width="24" height="24" viewBox="0 0 24 24" fill="none">
    <path d="M12 21.7504C6.62391 21.7504 2.25 17.369 2.25 11.984C2.25 9.05661 3.52734 6.31208 5.75437 4.45818C5.85836 4.37109 5.9785 4.30537 6.10792 4.26479C6.23734 4.2242 6.37349 4.20954 6.50858 4.22165C6.64367 4.23376 6.77505 4.2724 6.89519 4.33536C7.01532 4.39832 7.12186 4.48436 7.2087 4.58855C7.29553 4.69274 7.36096 4.81304 7.40124 4.94255C7.44152 5.07207 7.45585 5.20826 7.44341 5.34332C7.43098 5.47838 7.39203 5.60966 7.32878 5.72965C7.26554 5.84963 7.17924 5.95597 7.07484 6.04255C5.31937 7.50505 4.3125 9.67068 4.3125 11.984C4.3125 16.2318 7.76109 19.6879 12 19.6879C16.2389 19.6879 19.6875 16.2318 19.6875 11.984C19.6874 10.8487 19.4358 9.72759 18.9509 8.70113C18.466 7.67466 17.7598 6.76833 16.883 6.04724C16.7744 5.96245 16.6838 5.85675 16.6168 5.73639C16.5497 5.61603 16.5074 5.48345 16.4924 5.34648C16.4775 5.20951 16.4901 5.07093 16.5296 4.93892C16.569 4.8069 16.6346 4.68414 16.7223 4.57788C16.81 4.47162 16.9181 4.38402 17.0403 4.32024C17.1624 4.25646 17.2961 4.21781 17.4334 4.20657C17.5707 4.19532 17.7089 4.21171 17.8398 4.25476C17.9707 4.29782 18.0916 4.36667 18.1955 4.45724C19.307 5.37146 20.2023 6.52056 20.8169 7.82196C21.4314 9.12336 21.7501 10.5447 21.75 11.984C21.75 17.369 17.3761 21.7504 12 21.7504Z" fill="#147575"/>
    <path d="M12 12.75C11.7265 12.75 11.4642 12.6413 11.2708 12.448C11.0774 12.2546 10.9688 11.9923 10.9688 11.7188V3.28125C10.9688 3.00775 11.0774 2.74544 11.2708 2.55205C11.4642 2.35865 11.7265 2.25 12 2.25C12.2735 2.25 12.5358 2.35865 12.7292 2.55205C12.9226 2.74544 13.0312 3.00775 13.0312 3.28125V11.7188C13.0312 11.9923 12.9226 12.2546 12.7292 12.448C12.5358 12.6413 12.2735 12.75 12 12.75Z" fill="#147575"/>
</svg>