<svg xmlns="http://www.w3.org/2000/svg" width="96" height="96" viewBox="0 0 96 96" fill="none">
    <path d="M12 25.5044C12 23.5684 13.38 21.9964 15.084 21.9964H25.744C27.86 21.9324 29.728 20.4004 30.448 18.1364L30.568 17.7364L31.028 16.1724C31.308 15.2124 31.552 14.3724 31.896 13.6244C33.248 10.6684 35.752 8.61645 38.644 8.09245C39.38 7.96045 40.156 7.96045 41.044 7.96045H54.956C55.848 7.96045 56.624 7.96045 57.356 8.09245C60.248 8.61645 62.756 10.6684 64.104 13.6244C64.448 14.3724 64.692 15.2084 64.976 16.1724L65.432 17.7364L65.552 18.1364C66.272 20.4004 68.512 21.9364 70.632 21.9964H80.912C82.62 21.9964 84 23.5684 84 25.5044C84 27.4404 82.62 29.0124 80.916 29.0124H15.08C13.38 29.0124 12 27.4404 12 25.5044Z" fill="#D32F2F"/>
    <path fill-rule="evenodd" clip-rule="evenodd" d="M46.384 87.9604H49.616C60.748 87.9604 66.312 87.9605 69.936 84.4165C73.552 80.8725 73.92 75.0605 74.66 63.4365L75.728 46.6844C76.128 40.3764 76.328 37.2204 74.516 35.2244C72.7 33.2244 69.636 33.2244 63.504 33.2244H32.496C26.364 33.2244 23.296 33.2244 21.484 35.2244C19.668 37.2244 19.868 40.3764 20.272 46.6844L21.34 63.4365C22.08 75.0605 22.448 80.8765 26.068 84.4165C29.688 87.9605 35.252 87.9604 46.384 87.9604ZM40.984 48.7164C40.824 46.9804 39.352 45.7165 37.704 45.8885C36.052 46.0605 34.852 47.6084 35.016 49.3444L37.016 70.3964C37.176 72.1324 38.648 73.3964 40.296 73.2244C41.948 73.0524 43.148 71.5044 42.984 69.7684L40.984 48.7164ZM58.3 45.8885C59.948 46.0605 61.152 47.6084 60.984 49.3444L58.984 70.3964C58.824 72.1324 57.348 73.3964 55.704 73.2244C54.052 73.0524 52.852 71.5044 53.016 69.7684L55.016 48.7164C55.176 46.9804 56.656 45.7165 58.3 45.8885Z" fill="#D32F2F"/>
</svg>