<svg width="17" height="15" viewBox="0 0 17 15" fill="none" xmlns="http://www.w3.org/2000/svg">
<path d="M3.17578 1.29004C4.35578 0.750742 5.99316 0.85824 7.6123 2.54102L8.33301 3.29004L9.05371 2.54102C10.6727 0.858688 12.3102 0.751716 13.4902 1.29102C14.7333 1.85921 15.6668 3.22502 15.667 4.87695C15.667 6.59069 14.9699 7.91766 13.9375 9.08008C12.871 10.2809 11.5313 11.2231 10.2461 12.2354L10.2451 12.2363C9.80402 12.5848 9.43326 12.8714 9.08301 13.0762C8.73231 13.2811 8.49595 13.3457 8.33301 13.3457C8.17033 13.3456 7.93472 13.2811 7.58398 13.0762C7.40859 12.9737 7.22795 12.8508 7.03613 12.71L6.4209 12.2363C5.13572 11.2229 3.79631 10.2811 2.72949 9.08008C1.69702 7.91759 1.00009 6.5909 1 4.87695C1 3.22486 1.93274 1.85823 3.17578 1.29004Z" stroke="#147575" stroke-width="2"/>
</svg>
