<svg xmlns="http://www.w3.org/2000/svg" width="18" height="18" viewBox="0 0 18 18" fill="none">
    <path d="M7.5001 14.2502C7.32486 14.2505 7.15504 14.1895 7.0201 14.0777C6.86672 13.9505 6.77024 13.7676 6.75195 13.5692C6.73366 13.3708 6.79506 13.1732 6.9226 13.0202L10.2826 9.00019L7.0426 4.97269C6.91677 4.81774 6.8579 4.61903 6.87902 4.42055C6.90013 4.22207 6.99949 4.04019 7.1551 3.91519C7.31198 3.77716 7.51932 3.71083 7.72718 3.73219C7.93504 3.75354 8.12457 3.86064 8.2501 4.02769L11.8726 8.52769C12.1001 8.80444 12.1001 9.20344 11.8726 9.48019L8.1226 13.9802C7.97 14.1643 7.73878 14.2646 7.5001 14.2502Z" fill="white"/>
</svg>