<svg xmlns="http://www.w3.org/2000/svg" width="18" height="18" viewBox="0 0 18 18" fill="none">
    <path d="M2.25 4.78205C2.25 4.41905 2.50875 4.1243 2.82825 4.1243H4.827C5.22375 4.1123 5.574 3.82505 5.709 3.40055L5.7315 3.32555L5.81775 3.0323C5.87025 2.8523 5.916 2.6948 5.9805 2.55455C6.234 2.0003 6.7035 1.61555 7.24575 1.5173C7.38375 1.49255 7.52925 1.49255 7.69575 1.49255H10.3043C10.4715 1.49255 10.617 1.49255 10.7542 1.5173C11.2965 1.61555 11.7667 2.0003 12.0195 2.55455C12.084 2.6948 12.1297 2.85155 12.183 3.0323L12.2685 3.32555L12.291 3.40055C12.426 3.82505 12.846 4.11305 13.2435 4.1243H15.171C15.4913 4.1243 15.75 4.41905 15.75 4.78205C15.75 5.14505 15.4913 5.4398 15.1718 5.4398H2.8275C2.50875 5.4398 2.25 5.14505 2.25 4.78205Z" fill="#212B36"/>
    <path fill-rule="evenodd" clip-rule="evenodd" d="M8.697 16.4926H9.303C11.3903 16.4926 12.4335 16.4926 13.113 15.8281C13.791 15.1636 13.86 14.0738 13.9988 11.8943L14.199 8.7533C14.274 7.57055 14.3115 6.9788 13.9717 6.60455C13.6312 6.22955 13.0568 6.22955 11.907 6.22955H6.093C4.94325 6.22955 4.368 6.22955 4.02825 6.60455C3.68775 6.97955 3.72525 7.57055 3.801 8.7533L4.00125 11.8943C4.14 14.0738 4.209 15.1643 4.88775 15.8281C5.5665 16.4926 6.60975 16.4926 8.697 16.4926ZM7.6845 9.1343C7.6545 8.8088 7.3785 8.5718 7.0695 8.60405C6.75975 8.6363 6.53475 8.92655 6.5655 9.25205L6.9405 13.1993C6.9705 13.5248 7.2465 13.7618 7.5555 13.7296C7.86525 13.6973 8.09025 13.4071 8.0595 13.0816L7.6845 9.1343ZM10.9312 8.60405C11.2402 8.6363 11.466 8.92655 11.4345 9.25205L11.0595 13.1993C11.0295 13.5248 10.7527 13.7618 10.4445 13.7296C10.1347 13.6973 9.90975 13.4071 9.9405 13.0816L10.3155 9.1343C10.3455 8.8088 10.623 8.5718 10.9312 8.60405Z" fill="#212B36"/>
</svg>