<svg width="16" height="16" viewBox="0 0 16 16" fill="none" xmlns="http://www.w3.org/2000/svg">
<path fill-rule="evenodd" clip-rule="evenodd" d="M8.82157 0.906663C9.24291 0.40133 10.0636 0.746663 9.99691 1.40133L9.52624 6H13.3336C13.4602 6.00004 13.5843 6.03618 13.6912 6.10418C13.798 6.17217 13.8833 6.26921 13.9371 6.38393C13.9908 6.49865 14.0107 6.62631 13.9945 6.75194C13.9783 6.87758 13.9266 6.996 13.8456 7.09333L7.17891 15.0933C6.75757 15.5987 5.93691 15.2533 6.00357 14.5987L6.47424 10H2.66691C2.54023 9.99995 2.41619 9.96381 2.30931 9.89582C2.20243 9.82782 2.11713 9.73078 2.06341 9.61606C2.00969 9.50134 1.98976 9.37369 2.00597 9.24805C2.02217 9.12242 2.07383 9.004 2.15491 8.90666L8.82157 0.906663Z" fill="white"/>
</svg>
