<svg xmlns="http://www.w3.org/2000/svg" width="20" height="20" viewBox="0 0 20 20" fill="none">
    <path fill-rule="evenodd" clip-rule="evenodd" d="M9.99513 11.1737L14.707 15.8859C14.8641 16.0377 15.0745 16.1216 15.2929 16.1197C15.5113 16.1178 15.7202 16.0302 15.8746 15.8758C16.0291 15.7213 16.1167 15.5124 16.1186 15.294C16.1205 15.0756 16.0365 14.8652 15.8848 14.7081L11.1729 9.99585L15.8848 5.28363C16.0365 5.12652 16.1205 4.91611 16.1186 4.6977C16.1167 4.47929 16.0291 4.27037 15.8746 4.11593C15.7202 3.96148 15.5113 3.87388 15.2929 3.87198C15.0745 3.87008 14.8641 3.95404 14.707 4.10578L9.99513 8.818L5.28324 4.10578C5.12545 3.95779 4.91627 3.87701 4.69997 3.88052C4.48367 3.88404 4.27722 3.97157 4.12431 4.1246C3.9714 4.27763 3.88402 4.48415 3.88066 4.70047C3.8773 4.91678 3.95823 5.12592 4.10631 5.28363L8.81737 9.99585L4.10548 14.7081C4.02593 14.7849 3.96247 14.8768 3.91882 14.9785C3.87517 15.0801 3.85219 15.1894 3.85123 15.3C3.85027 15.4106 3.87134 15.5203 3.91322 15.6227C3.9551 15.725 4.01695 15.818 4.09516 15.8962C4.17336 15.9745 4.26636 16.0363 4.36872 16.0782C4.47109 16.1201 4.58077 16.1412 4.69136 16.1402C4.80196 16.1392 4.91126 16.1163 5.01288 16.0726C5.1145 16.0289 5.20641 15.9655 5.28324 15.8859L9.99513 11.1737Z" fill="#212B36"/>
</svg>