<svg xmlns="http://www.w3.org/2000/svg" width="20" height="20" viewBox="0 0 20 20" fill="none">
    <path d="M2.64407 4.31057C2.46122 4.49342 2.3585 4.74141 2.3585 5C2.3585 5.25859 2.46122 5.50658 2.64407 5.68943C2.82691 5.87228 3.07491 5.975 3.3335 5.975H16.6668C16.9254 5.975 17.1734 5.87228 17.3563 5.68943C17.5391 5.50658 17.6418 5.25859 17.6418 5C17.6418 4.74141 17.5391 4.49342 17.3563 4.31057C17.1734 4.12772 16.9254 4.025 16.6668 4.025H3.3335C3.07491 4.025 2.82691 4.12772 2.64407 4.31057ZM2.64407 9.31057C2.46122 9.49342 2.3585 9.74141 2.3585 10C2.3585 10.2586 2.46122 10.5066 2.64407 10.6894C2.82691 10.8723 3.07491 10.975 3.3335 10.975H12.5002C12.7587 10.975 13.0067 10.8723 13.1896 10.6894C13.3724 10.5066 13.4752 10.2586 13.4752 10C13.4752 9.74141 13.3724 9.49342 13.1896 9.31057C13.0067 9.12772 12.7587 9.025 12.5002 9.025H3.3335C3.07491 9.025 2.82691 9.12772 2.64407 9.31057ZM2.64407 14.3106C2.46122 14.4934 2.3585 14.7414 2.3585 15C2.3585 15.2586 2.46122 15.5066 2.64407 15.6894C2.82692 15.8723 3.07491 15.975 3.3335 15.975H7.50016C7.75875 15.975 8.00674 15.8723 8.18959 15.6894C8.37244 15.5066 8.47516 15.2586 8.47516 15C8.47516 14.7414 8.37244 14.4934 8.18959 14.3106C8.00674 14.1277 7.75875 14.025 7.50016 14.025H3.3335C3.07491 14.025 2.82692 14.1277 2.64407 14.3106Z" fill="#212B36" stroke="#212B36" stroke-width="0.7"/>
</svg>