<svg xmlns="http://www.w3.org/2000/svg" width="24" height="24" viewBox="0 0 24 24" fill="none">
    <path d="M8.35194 20.242C8.78709 20.7922 9.34159 21.2364 9.97355 21.541C10.6055 21.8455 11.2984 22.0025 11.9999 22C12.7015 22.0025 13.3944 21.8455 14.0263 21.541C14.6583 21.2364 15.2128 20.7922 15.6479 20.242C13.227 20.5702 10.7729 20.5702 8.35194 20.242Z" fill="#147575"/>
    <path fill-rule="evenodd" clip-rule="evenodd" d="M18.7499 9.704V9C18.7499 5.134 15.7269 2 11.9999 2C8.27294 2 5.24994 5.134 5.24994 9V9.704C5.24994 10.549 5.00994 11.375 4.55794 12.078L3.44994 13.801C2.43894 15.375 3.21094 17.514 4.96994 18.011C9.56618 19.313 14.4337 19.313 19.0299 18.011C20.7889 17.514 21.5609 15.375 20.5499 13.801L19.4419 12.078C18.9884 11.3693 18.7489 10.5454 18.7499 9.704ZM11.9999 5.25C12.1989 5.25 12.3896 5.32902 12.5303 5.46967C12.6709 5.61032 12.7499 5.80109 12.7499 6V10C12.7499 10.1989 12.6709 10.3897 12.5303 10.5303C12.3896 10.671 12.1989 10.75 11.9999 10.75C11.801 10.75 11.6103 10.671 11.4696 10.5303C11.329 10.3897 11.2499 10.1989 11.2499 10V6C11.2499 5.80109 11.329 5.61032 11.4696 5.46967C11.6103 5.32902 11.801 5.25 11.9999 5.25Z" fill="#147575"/>
</svg>