<svg width="28" height="28" viewBox="0 0 28 28" fill="none" xmlns="http://www.w3.org/2000/svg">
<path d="M0 14C0 6.26801 6.26801 0 14 0C21.732 0 28 6.26801 28 14C28 21.732 21.732 28 14 28C6.26801 28 0 21.732 0 14Z" fill="black" fill-opacity="0.48"/>
<path fill-rule="evenodd" clip-rule="evenodd" d="M13.9959 15.0563L18.2366 19.2973C18.3779 19.4339 18.5673 19.5094 18.7638 19.5077C18.9604 19.506 19.1484 19.4272 19.2874 19.2882C19.4264 19.1492 19.5052 18.9612 19.5069 18.7646C19.5087 18.568 19.4331 18.3786 19.2965 18.2373L15.0558 13.9963L19.2965 9.75525C19.4331 9.61386 19.5087 9.42448 19.5069 9.22792C19.5052 9.03135 19.4264 8.84332 19.2874 8.70432C19.1484 8.56532 18.9604 8.48648 18.7638 8.48477C18.5673 8.48306 18.3779 8.55863 18.2366 8.69519L13.9959 12.9362L9.75515 8.69519C9.61313 8.562 9.42487 8.4893 9.2302 8.49246C9.03554 8.49562 8.84973 8.5744 8.71211 8.71213C8.57449 8.84985 8.49585 9.03572 8.49283 9.23041C8.4898 9.42509 8.56264 9.61332 8.69591 9.75525L12.9359 13.9963L8.69516 18.2373C8.62357 18.3064 8.56646 18.3891 8.52717 18.4806C8.48788 18.5721 8.4672 18.6704 8.46634 18.77C8.46547 18.8695 8.48444 18.9682 8.52213 19.0604C8.55982 19.1525 8.61549 19.2362 8.68587 19.3066C8.75626 19.377 8.83996 19.4327 8.93208 19.4704C9.02421 19.5081 9.12292 19.527 9.22246 19.5262C9.322 19.5253 9.42036 19.5046 9.51182 19.4653C9.60328 19.426 9.686 19.3689 9.75515 19.2973L13.9959 15.0563Z" fill="white"/>
</svg>
