<svg xmlns="http://www.w3.org/2000/svg" width="96" height="96" viewBox="0 0 96 96" fill="none">
    <path d="M8 48.0001C8 25.9081 25.908 8.00012 48 8.00012C70.092 8.00012 88 25.9081 88 48.0001C88 70.0921 70.092 88.0001 48 88.0001C25.908 88.0001 8 70.0921 8 48.0001ZM16 48.0001C16 56.4871 19.3714 64.6264 25.3726 70.6275C31.3737 76.6287 39.5131 80.0001 48 80.0001C56.4869 80.0001 64.6263 76.6287 70.6274 70.6275C76.6286 64.6264 80 56.4871 80 48.0001C80 39.5132 76.6286 31.3739 70.6274 25.3727C64.6263 19.3715 56.4869 16.0001 48 16.0001C39.5131 16.0001 31.3737 19.3715 25.3726 25.3727C19.3714 31.3739 16 39.5132 16 48.0001Z" fill="#1C1C1C"/>
    <path fill-rule="evenodd" clip-rule="evenodd" d="M28.4356 34.0927C21.7559 43.4655 22.6205 56.5619 31.0294 64.9708C39.4383 73.3797 52.5346 74.2443 61.9074 67.5646L28.4356 34.0927ZM67.5643 61.9077C74.244 52.5349 73.3794 39.4386 64.9705 31.0297C56.5616 22.6208 43.4653 21.7562 34.0924 28.4359L67.5643 61.9077Z" fill="#1C1C1C"/>
</svg>