<svg width="19" height="18" viewBox="0 0 19 18" fill="none" xmlns="http://www.w3.org/2000/svg">
<path d="M18.2071 16.2871L14.8071 12.8971C15.9041 11.4995 16.4993 9.77373 16.4971 7.99707C16.4971 6.41482 16.0279 4.8681 15.1488 3.55251C14.2698 2.23692 13.0204 1.21154 11.5585 0.606038C10.0967 0.000536561 8.4882 -0.15789 6.93635 0.150792C5.3845 0.459473 3.95904 1.2214 2.84022 2.34022C1.7214 3.45904 0.959473 4.8845 0.650792 6.43635C0.34211 7.9882 0.500537 9.59673 1.10604 11.0585C1.71154 12.5204 2.73692 13.7698 4.05251 14.6488C5.3681 15.5279 6.91482 15.9971 8.49707 15.9971C10.2737 15.9993 11.9995 15.4041 13.3971 14.3071L16.7871 17.7071C16.88 17.8008 16.9906 17.8752 17.1125 17.926C17.2344 17.9767 17.3651 18.0029 17.4971 18.0029C17.6291 18.0029 17.7598 17.9767 17.8817 17.926C18.0035 17.8752 18.1141 17.8008 18.2071 17.7071C18.3008 17.6141 18.3752 17.5035 18.426 17.3817C18.4767 17.2598 18.5029 17.1291 18.5029 16.9971C18.5029 16.8651 18.4767 16.7344 18.426 16.6125C18.3752 16.4906 18.3008 16.38 18.2071 16.2871ZM2.49707 7.99707C2.49707 6.81039 2.84897 5.65035 3.50826 4.66365C4.16754 3.67696 5.10462 2.90792 6.20097 2.4538C7.29733 1.99967 8.50373 1.88085 9.66762 2.11236C10.8315 2.34387 11.9006 2.91532 12.7397 3.75443C13.5788 4.59355 14.1503 5.66265 14.3818 6.82653C14.6133 7.99042 14.4945 9.19682 14.0404 10.2932C13.5862 11.3895 12.8172 12.3266 11.8305 12.9859C10.8438 13.6452 9.68376 13.9971 8.49707 13.9971C6.90578 13.9971 5.37965 13.3649 4.25443 12.2397C3.12922 11.1145 2.49707 9.58837 2.49707 7.99707Z" fill="white"/>
</svg>
