<svg xmlns="http://www.w3.org/2000/svg" width="24" height="24" viewBox="0 0 24 24" fill="none">
    <path d="M8.46976 18.9693C8.40008 19.039 8.3448 19.1217 8.30709 19.2128C8.26938 19.3038 8.24997 19.4014 8.24997 19.4999C8.24997 19.5985 8.26938 19.6961 8.30709 19.7871C8.3448 19.8781 8.40008 19.9609 8.46976 20.0306C8.53944 20.1002 8.62217 20.1555 8.71321 20.1932C8.80426 20.2309 8.90184 20.2503 9.00039 20.2503C9.09893 20.2503 9.19651 20.2309 9.28756 20.1932C9.3786 20.1555 9.46133 20.1002 9.53101 20.0306L17.031 12.5306C17.1007 12.4609 17.1561 12.3782 17.1938 12.2871C17.2315 12.1961 17.251 12.0985 17.251 11.9999C17.251 11.9014 17.2315 11.8038 17.1938 11.7127C17.1561 11.6217 17.1007 11.539 17.031 11.4693L9.53101 3.9693C9.39028 3.82857 9.19941 3.74951 9.00039 3.74951C8.80136 3.74951 8.61049 3.82857 8.46976 3.9693C8.32903 4.11003 8.24997 4.30091 8.24997 4.49993C8.24997 4.69895 8.32903 4.88982 8.46976 5.03055L15.4401 11.9999L8.46976 18.9693Z" fill="white"/>
</svg>