<svg width="60" height="60" viewBox="0 0 60 60" fill="none" xmlns="http://www.w3.org/2000/svg">
<path fill-rule="evenodd" clip-rule="evenodd" d="M17.0687 11.004C21.9012 7.71435 27.8057 6.39013 33.5801 7.30088C35.9976 7.68216 38.3161 8.44315 40.458 9.53789C40.0683 10.2974 39.8484 11.1584 39.8484 12.0707C39.8484 15.1389 42.3357 17.6262 45.4039 17.6262C48.4722 17.6262 50.9595 15.1389 50.9595 12.0707C50.9595 9.00245 48.4722 6.51515 45.4039 6.51515C43.9888 6.51515 42.6972 7.04428 41.7162 7.91548C39.2925 6.6296 36.6528 5.74033 33.8949 5.30535C27.6128 4.31453 21.1892 5.75517 15.9319 9.33397C10.6747 12.9128 6.97896 18.3607 5.59723 24.5685C4.2155 30.7764 5.25162 37.2775 8.49465 42.7482C11.7377 48.219 16.9438 52.2482 23.0531 54.0154L23.6145 52.0748C17.9988 50.4503 13.2134 46.7468 10.2325 41.7181C7.25149 36.6894 6.2991 30.7136 7.56917 25.0074C8.83924 19.3012 12.2363 14.2936 17.0687 11.004ZM50.0677 15.0909C49.692 15.67 49.2113 16.1747 48.6526 16.578C51.8925 21.0803 53.4002 26.6124 52.8786 32.1537C52.3307 37.9738 49.5853 43.3663 45.2013 47.2334C41.3147 50.6618 36.3992 52.6626 31.2625 52.9451V48.2914L38.0397 44.786C38.3751 44.6125 38.5857 44.2664 38.5857 43.8888V35.303V28.2323V21.1616V17.6262H36.5655V20.5997L31.2625 23.8912V15.606H29.2423V23.8912L23.9393 20.5997V17.6262H21.9191V21.1616V28.2323V35.303V43.8888C21.9191 44.2664 22.1297 44.6125 22.4651 44.786L29.2423 48.2914V54.215L29.2181 54.9878C35.5748 55.1867 41.7683 52.9555 46.5377 48.7484C51.3071 44.5414 54.2939 38.6748 54.8899 32.343C55.4693 26.188 53.7472 20.0433 50.0677 15.0909ZM23.9393 22.9774L29.2423 26.2689V30.9619L23.9393 27.6704V22.9774ZM23.9393 30.0481V34.7242L29.2423 37.8329V33.3396L23.9393 30.0481ZM29.2423 40.1746L23.9393 37.066V43.2741L29.2423 46.017V40.1746ZM31.2625 46.017L36.5655 43.2741V37.066L31.2625 40.1746V46.017ZM31.2625 37.8329L36.5655 34.7242V30.0481L31.2625 33.3396V37.8329ZM31.2625 30.9619V26.2689L36.5655 22.9774V27.6704L31.2625 30.9619ZM48.9393 12.0707C48.9393 14.0232 47.3564 15.606 45.4039 15.606C43.4514 15.606 41.8686 14.0232 41.8686 12.0707C41.8686 10.1182 43.4514 8.53535 45.4039 8.53535C47.3564 8.53535 48.9393 10.1182 48.9393 12.0707Z" fill="#147575"/>
</svg>
