<svg width="24" height="24" viewBox="0 0 24 24" fill="none" xmlns="http://www.w3.org/2000/svg">
<g clip-path="url(#clip0_1132_402)">
<path fill-rule="evenodd" clip-rule="evenodd" d="M11.9945 2C16.1172 2 19.2443 5.52578 19.2445 9.59961V10.166C19.2442 10.4679 19.3279 10.7577 19.4789 11.002L20.3402 12.3809L20.3412 12.3818C21.7649 14.6624 20.7769 17.9282 18.0209 18.7295L18.0199 18.7285C17.6997 18.8218 17.3772 18.9053 17.0541 18.9834L16.4174 19.8125C15.8955 20.4912 15.2263 21.0441 14.4584 21.4248C13.6942 21.8035 12.8536 22.0001 12.0004 21.999L12.0014 22C11.9991 21.9999 11.9967 21.999 11.9945 21.999C11.9923 21.9991 11.9899 22 11.9877 22C11.1348 22.0009 10.2945 21.8034 9.53064 21.4248C8.76272 21.0441 8.09348 20.4912 7.57166 19.8125L6.93396 18.9834C6.61089 18.9053 6.28838 18.8218 5.96814 18.7285C3.21248 17.927 2.22426 14.6623 3.64783 12.3818L3.64881 12.3809L4.51014 11.002C4.65797 10.7654 4.74451 10.4736 4.74451 10.1631V9.59961C4.74471 5.52586 7.87196 2.00013 11.9945 2ZM14.8314 18.5938C12.9488 18.8562 11.0402 18.8562 9.1576 18.5938C9.49595 19.0337 9.92703 19.3892 10.4183 19.6328C10.9098 19.8764 11.449 20.0019 11.9945 20C12.5401 20.002 13.0792 19.8764 13.5707 19.6328C14.062 19.3892 14.493 19.0337 14.8314 18.5938ZM11.9945 4C9.09598 4.00013 6.74471 6.50707 6.74451 9.59961V10.1631C6.74451 10.8391 6.55798 11.5001 6.20643 12.0625L5.34412 13.4404C4.55794 14.6995 5.15888 16.4108 6.52674 16.8086C10.1015 17.8501 13.8875 17.8501 17.4623 16.8086C18.8303 16.411 19.4312 14.6996 18.6449 13.4404L17.7826 12.0625C17.4299 11.4956 17.2437 10.8361 17.2445 10.1631V9.59961C17.2443 6.60378 15.038 4.15702 12.265 4.00684L11.9945 4ZM11.9945 6.59961C12.149 6.59961 12.2973 6.66316 12.4066 6.77539C12.516 6.88791 12.5775 7.04107 12.5775 7.2002V10.4004L12.5668 10.5176C12.5444 10.6329 12.4887 10.7398 12.4066 10.8242C12.2973 10.9366 12.1491 11 11.9945 11L11.8802 10.9883C11.8057 10.9729 11.7346 10.9428 11.6713 10.8994L11.5824 10.8242C11.5004 10.7398 11.4446 10.6329 11.4222 10.5176L11.4115 10.4004V7.2002C11.4115 7.04112 11.4731 6.8879 11.5824 6.77539C11.6917 6.66315 11.84 6.59967 11.9945 6.59961Z" fill="black"/>
<path fill-rule="evenodd" clip-rule="evenodd" d="M11.9945 2C16.1172 2 19.2443 5.52578 19.2445 9.59961V10.166C19.2442 10.4679 19.3279 10.7577 19.4789 11.002L20.3402 12.3809L20.3412 12.3818C21.7649 14.6624 20.7769 17.9282 18.0209 18.7295L18.0199 18.7285C17.6997 18.8218 17.3772 18.9053 17.0541 18.9834L16.4174 19.8125C15.8955 20.4912 15.2263 21.0441 14.4584 21.4248C13.6942 21.8035 12.8536 22.0001 12.0004 21.999L12.0014 22C11.9991 21.9999 11.9967 21.999 11.9945 21.999C11.9923 21.9991 11.9899 22 11.9877 22C11.1348 22.0009 10.2945 21.8034 9.53064 21.4248C8.76272 21.0441 8.09348 20.4912 7.57166 19.8125L6.93396 18.9834C6.61089 18.9053 6.28838 18.8218 5.96814 18.7285C3.21248 17.927 2.22426 14.6623 3.64783 12.3818L3.64881 12.3809L4.51014 11.002C4.65797 10.7654 4.74451 10.4736 4.74451 10.1631V9.59961C4.74471 5.52586 7.87196 2.00013 11.9945 2ZM14.8314 18.5938C12.9488 18.8562 11.0402 18.8562 9.1576 18.5938C9.49595 19.0337 9.92703 19.3892 10.4183 19.6328C10.9098 19.8764 11.449 20.0019 11.9945 20C12.5401 20.002 13.0792 19.8764 13.5707 19.6328C14.062 19.3892 14.493 19.0337 14.8314 18.5938ZM11.9945 4C9.09598 4.00013 6.74471 6.50707 6.74451 9.59961V10.1631C6.74451 10.8391 6.55798 11.5001 6.20643 12.0625L5.34412 13.4404C4.55794 14.6995 5.15888 16.4108 6.52674 16.8086C10.1015 17.8501 13.8875 17.8501 17.4623 16.8086C18.8303 16.411 19.4312 14.6996 18.6449 13.4404L17.7826 12.0625C17.4299 11.4956 17.2437 10.8361 17.2445 10.1631V9.59961C17.2443 6.60378 15.038 4.15702 12.265 4.00684L11.9945 4ZM11.9945 6.59961C12.149 6.59961 12.2973 6.66316 12.4066 6.77539C12.516 6.88791 12.5775 7.04107 12.5775 7.2002V10.4004L12.5668 10.5176C12.5444 10.6329 12.4887 10.7398 12.4066 10.8242C12.2973 10.9366 12.1491 11 11.9945 11L11.8802 10.9883C11.8057 10.9729 11.7346 10.9428 11.6713 10.8994L11.5824 10.8242C11.5004 10.7398 11.4446 10.6329 11.4222 10.5176L11.4115 10.4004V7.2002C11.4115 7.04112 11.4731 6.8879 11.5824 6.77539C11.6917 6.66315 11.84 6.59967 11.9945 6.59961Z" fill="#147575"/>
</g>
<defs>
<clipPath id="clip0_1132_402">
<rect width="18" height="20" fill="white" transform="translate(3 2)"/>
</clipPath>
</defs>
</svg>
