<svg width="18" height="20" viewBox="0 0 18 20" fill="none" xmlns="http://www.w3.org/2000/svg">
<path fill-rule="evenodd" clip-rule="evenodd" d="M8.99451 0C13.1172 2.37894e-07 16.2443 3.52578 16.2445 7.59961V8.16602C16.2442 8.46788 16.3279 8.75773 16.4789 9.00195L17.3402 10.3809L17.3412 10.3818C18.7649 12.6624 17.7769 15.9282 15.0209 16.7295L15.0199 16.7285C14.6997 16.8218 14.3772 16.9053 14.0541 16.9834L13.4174 17.8125C12.8955 18.4912 12.2263 19.0441 11.4584 19.4248C10.6942 19.8035 9.85363 20.0001 9.00037 19.999L9.00135 20C8.99914 19.9999 8.99671 19.999 8.99451 19.999C8.99231 19.9991 8.98988 20 8.98768 20V19.999C8.13476 19.9999 7.29451 19.8034 6.53064 19.4248C5.76272 19.0441 5.09348 18.4912 4.57166 17.8125L3.93396 16.9834C3.61089 16.9053 3.28838 16.8218 2.96814 16.7285C0.212479 15.927 -0.775742 12.6623 0.647832 10.3818L0.648809 10.3809L1.51014 9.00195C1.65797 8.76541 1.74451 8.47364 1.74451 8.16309V7.59961C1.74471 3.52586 4.87196 0.000127643 8.99451 0ZM11.8314 16.5938C9.94884 16.8562 8.04018 16.8562 6.1576 16.5938C6.49595 17.0337 6.92703 17.3892 7.41834 17.6328C7.9098 17.8764 8.44897 18.0019 8.99451 18C9.54006 18.002 10.0792 17.8764 10.5707 17.6328C11.062 17.3892 11.493 17.0337 11.8314 16.5938ZM8.99451 2C6.09598 2.00013 3.74471 4.50707 3.74451 7.59961V8.16309C3.74451 8.83908 3.55798 9.5001 3.20643 10.0625L2.34412 11.4404C1.55794 12.6995 2.15888 14.4108 3.52674 14.8086C7.1015 15.8501 10.8875 15.8501 14.4623 14.8086C15.8303 14.411 16.4312 12.6996 15.6449 11.4404L14.7826 10.0625C14.4299 9.49559 14.2437 8.83613 14.2445 8.16309V7.59961C14.2443 4.60378 12.038 2.15702 9.26502 2.00684L8.99451 2ZM8.99451 4.59961C9.149 4.59961 9.29727 4.66316 9.40662 4.77539C9.51602 4.88791 9.57752 5.04107 9.57752 5.2002V8.40039L9.56678 8.51758C9.54437 8.63291 9.48867 8.73982 9.40662 8.82422C9.29725 8.93657 9.14909 9 8.99451 9L8.88025 8.98828C8.80571 8.97293 8.73455 8.94275 8.67127 8.89941L8.5824 8.82422C8.5004 8.73983 8.44464 8.63288 8.42225 8.51758L8.4115 8.40039V5.2002C8.4115 5.04112 8.47307 4.8879 8.5824 4.77539C8.69171 4.66315 8.84005 4.59967 8.99451 4.59961Z" fill="black"/>
<path fill-rule="evenodd" clip-rule="evenodd" d="M8.99451 0C13.1172 2.37894e-07 16.2443 3.52578 16.2445 7.59961V8.16602C16.2442 8.46788 16.3279 8.75773 16.4789 9.00195L17.3402 10.3809L17.3412 10.3818C18.7649 12.6624 17.7769 15.9282 15.0209 16.7295L15.0199 16.7285C14.6997 16.8218 14.3772 16.9053 14.0541 16.9834L13.4174 17.8125C12.8955 18.4912 12.2263 19.0441 11.4584 19.4248C10.6942 19.8035 9.85363 20.0001 9.00037 19.999L9.00135 20C8.99914 19.9999 8.99671 19.999 8.99451 19.999C8.99231 19.9991 8.98988 20 8.98768 20V19.999C8.13476 19.9999 7.29451 19.8034 6.53064 19.4248C5.76272 19.0441 5.09348 18.4912 4.57166 17.8125L3.93396 16.9834C3.61089 16.9053 3.28838 16.8218 2.96814 16.7285C0.212479 15.927 -0.775742 12.6623 0.647832 10.3818L0.648809 10.3809L1.51014 9.00195C1.65797 8.76541 1.74451 8.47364 1.74451 8.16309V7.59961C1.74471 3.52586 4.87196 0.000127643 8.99451 0ZM11.8314 16.5938C9.94884 16.8562 8.04018 16.8562 6.1576 16.5938C6.49595 17.0337 6.92703 17.3892 7.41834 17.6328C7.9098 17.8764 8.44897 18.0019 8.99451 18C9.54006 18.002 10.0792 17.8764 10.5707 17.6328C11.062 17.3892 11.493 17.0337 11.8314 16.5938ZM8.99451 2C6.09598 2.00013 3.74471 4.50707 3.74451 7.59961V8.16309C3.74451 8.83908 3.55798 9.5001 3.20643 10.0625L2.34412 11.4404C1.55794 12.6995 2.15888 14.4108 3.52674 14.8086C7.1015 15.8501 10.8875 15.8501 14.4623 14.8086C15.8303 14.411 16.4312 12.6996 15.6449 11.4404L14.7826 10.0625C14.4299 9.49559 14.2437 8.83613 14.2445 8.16309V7.59961C14.2443 4.60378 12.038 2.15702 9.26502 2.00684L8.99451 2ZM8.99451 4.59961C9.149 4.59961 9.29727 4.66316 9.40662 4.77539C9.51602 4.88791 9.57752 5.04107 9.57752 5.2002V8.40039L9.56678 8.51758C9.54437 8.63291 9.48867 8.73982 9.40662 8.82422C9.29725 8.93657 9.14909 9 8.99451 9L8.88025 8.98828C8.80571 8.97293 8.73455 8.94275 8.67127 8.89941L8.5824 8.82422C8.5004 8.73983 8.44464 8.63288 8.42225 8.51758L8.4115 8.40039V5.2002C8.4115 5.04112 8.47307 4.8879 8.5824 4.77539C8.69171 4.66315 8.84005 4.59967 8.99451 4.59961Z" fill="#147575"/>
</svg>
